<svg width="16" height="16" viewBox="0 0 16 16" fill="none" xmlns="http://www.w3.org/2000/svg">
<g clip-path="url(#clip0_19_3705)">
<path d="M7.99992 12.6666C8.13177 12.6666 8.26067 12.6275 8.3703 12.5543C8.47993 12.481 8.56538 12.3769 8.61584 12.2551C8.6663 12.1333 8.6795 11.9992 8.65378 11.8699C8.62805 11.7406 8.56456 11.6218 8.47132 11.5286C8.37809 11.4353 8.2593 11.3718 8.12998 11.3461C8.00066 11.3204 7.86661 11.3336 7.7448 11.384C7.62298 11.4345 7.51886 11.5199 7.44561 11.6296C7.37235 11.7392 7.33325 11.8681 7.33325 12C7.33325 12.1768 7.40349 12.3463 7.52851 12.4714C7.65354 12.5964 7.82311 12.6666 7.99992 12.6666ZM11.3333 12.6666C11.4651 12.6666 11.594 12.6275 11.7036 12.5543C11.8133 12.481 11.8987 12.3769 11.9492 12.2551C11.9996 12.1333 12.0128 11.9992 11.9871 11.8699C11.9614 11.7406 11.8979 11.6218 11.8047 11.5286C11.7114 11.4353 11.5926 11.3718 11.4633 11.3461C11.334 11.3204 11.1999 11.3336 11.0781 11.384C10.9563 11.4345 10.8522 11.5199 10.7789 11.6296C10.7057 11.7392 10.6666 11.8681 10.6666 12C10.6666 12.1768 10.7368 12.3463 10.8618 12.4714C10.9869 12.5964 11.1564 12.6666 11.3333 12.6666ZM11.3333 9.99996C11.4651 9.99996 11.594 9.96086 11.7036 9.88761C11.8133 9.81435 11.8987 9.71023 11.9492 9.58842C11.9996 9.4666 12.0128 9.33255 11.9871 9.20323C11.9614 9.07391 11.8979 8.95512 11.8047 8.86189C11.7114 8.76865 11.5926 8.70516 11.4633 8.67944C11.334 8.65371 11.1999 8.66691 11.0781 8.71737C10.9563 8.76783 10.8522 8.85328 10.7789 8.96291C10.7057 9.07255 10.6666 9.20144 10.6666 9.33329C10.6666 9.5101 10.7368 9.67967 10.8618 9.8047C10.9869 9.92972 11.1564 9.99996 11.3333 9.99996ZM7.99992 9.99996C8.13177 9.99996 8.26067 9.96086 8.3703 9.88761C8.47993 9.81435 8.56538 9.71023 8.61584 9.58842C8.6663 9.4666 8.6795 9.33255 8.65378 9.20323C8.62805 9.07391 8.56456 8.95512 8.47132 8.86189C8.37809 8.76865 8.2593 8.70516 8.12998 8.67944C8.00066 8.65371 7.86661 8.66691 7.7448 8.71737C7.62298 8.76783 7.51886 8.85328 7.44561 8.96291C7.37235 9.07255 7.33325 9.20144 7.33325 9.33329C7.33325 9.5101 7.40349 9.67967 7.52851 9.8047C7.65354 9.92972 7.82311 9.99996 7.99992 9.99996ZM12.6666 1.99996H11.9999V1.33329C11.9999 1.15648 11.9297 0.986912 11.8047 0.861888C11.6796 0.736864 11.5101 0.666626 11.3333 0.666626C11.1564 0.666626 10.9869 0.736864 10.8618 0.861888C10.7368 0.986912 10.6666 1.15648 10.6666 1.33329V1.99996H5.33325V1.33329C5.33325 1.15648 5.26301 0.986912 5.13799 0.861888C5.01297 0.736864 4.8434 0.666626 4.66659 0.666626C4.48977 0.666626 4.3202 0.736864 4.19518 0.861888C4.07016 0.986912 3.99992 1.15648 3.99992 1.33329V1.99996H3.33325C2.80282 1.99996 2.29411 2.21067 1.91904 2.58575C1.54397 2.96082 1.33325 3.46953 1.33325 3.99996V13.3333C1.33325 13.8637 1.54397 14.3724 1.91904 14.7475C2.29411 15.1226 2.80282 15.3333 3.33325 15.3333H12.6666C13.197 15.3333 13.7057 15.1226 14.0808 14.7475C14.4559 14.3724 14.6666 13.8637 14.6666 13.3333V3.99996C14.6666 3.46953 14.4559 2.96082 14.0808 2.58575C13.7057 2.21067 13.197 1.99996 12.6666 1.99996ZM13.3333 13.3333C13.3333 13.5101 13.263 13.6797 13.138 13.8047C13.013 13.9297 12.8434 14 12.6666 14H3.33325C3.15644 14 2.98687 13.9297 2.86185 13.8047C2.73682 13.6797 2.66659 13.5101 2.66659 13.3333V7.33329H13.3333V13.3333ZM13.3333 5.99996H2.66659V3.99996C2.66659 3.82315 2.73682 3.65358 2.86185 3.52856C2.98687 3.40353 3.15644 3.33329 3.33325 3.33329H3.99992V3.99996C3.99992 4.17677 4.07016 4.34634 4.19518 4.47136C4.3202 4.59639 4.48977 4.66663 4.66659 4.66663C4.8434 4.66663 5.01297 4.59639 5.13799 4.47136C5.26301 4.34634 5.33325 4.17677 5.33325 3.99996V3.33329H10.6666V3.99996C10.6666 4.17677 10.7368 4.34634 10.8618 4.47136C10.9869 4.59639 11.1564 4.66663 11.3333 4.66663C11.5101 4.66663 11.6796 4.59639 11.8047 4.47136C11.9297 4.34634 11.9999 4.17677 11.9999 3.99996V3.33329H12.6666C12.8434 3.33329 13.013 3.40353 13.138 3.52856C13.263 3.65358 13.3333 3.82315 13.3333 3.99996V5.99996ZM4.66659 9.99996C4.79844 9.99996 4.92733 9.96086 5.03697 9.88761C5.1466 9.81435 5.23205 9.71023 5.2825 9.58842C5.33296 9.4666 5.34617 9.33255 5.32044 9.20323C5.29472 9.07391 5.23122 8.95512 5.13799 8.86189C5.04475 8.76865 4.92597 8.70516 4.79665 8.67944C4.66732 8.65371 4.53328 8.66691 4.41146 8.71737C4.28965 8.76783 4.18553 8.85328 4.11227 8.96291C4.03902 9.07255 3.99992 9.20144 3.99992 9.33329C3.99992 9.5101 4.07016 9.67967 4.19518 9.8047C4.3202 9.92972 4.48977 9.99996 4.66659 9.99996ZM4.66659 12.6666C4.79844 12.6666 4.92733 12.6275 5.03697 12.5543C5.1466 12.481 5.23205 12.3769 5.2825 12.2551C5.33296 12.1333 5.34617 11.9992 5.32044 11.8699C5.29472 11.7406 5.23122 11.6218 5.13799 11.5286C5.04475 11.4353 4.92597 11.3718 4.79665 11.3461C4.66732 11.3204 4.53328 11.3336 4.41146 11.384C4.28965 11.4345 4.18553 11.5199 4.11227 11.6296C4.03902 11.7392 3.99992 11.8681 3.99992 12C3.99992 12.1768 4.07016 12.3463 4.19518 12.4714C4.3202 12.5964 4.48977 12.6666 4.66659 12.6666Z" fill="#010101"/>
</g>
<defs>
<clipPath id="clip0_19_3705">
<rect width="16" height="16" fill="white"/>
</clipPath>
</defs>
</svg>
