<svg width="32" height="32" viewBox="0 0 32 32" fill="none" xmlns="http://www.w3.org/2000/svg">
<g clip-path="url(#clip0_19_3657)">
<path d="M31.5 23.888V20.1115L29.6355 19.634C29.4895 19.1615 29.301 18.705 29.073 18.2715L30.053 16.617L27.383 13.9465L25.728 14.927C25.295 14.6985 24.8385 14.51 24.366 14.364L23.888 12.5H20.1115L19.634 14.3645C19.1615 14.5105 18.705 14.699 18.272 14.9275L16.617 13.947L16.5 14.065V12.5H15C14.5785 12.5 14.1735 12.321 13.8895 12.0085C13.6015 11.692 13.466 11.2815 13.507 10.8515C13.5795 10.094 14.273 9.5 15.086 9.5H16.5V5C16.5 4.173 15.827 3.5 15 3.5H11V3.086C11 1.763 10.009 0.632503 8.744 0.512003C8.04 0.443003 7.3385 0.677003 6.8185 1.15C6.2985 1.6225 6 2.2975 6 3V3.5H2C1.173 3.5 0.5 4.173 0.5 5V9.5H1.914C2.727 9.5 3.4205 10.094 3.493 10.851C3.534 11.281 3.3985 11.692 3.1105 12.008C2.8265 12.321 2.4215 12.5 2 12.5H0.5V17C0.5 17.827 1.173 18.5 2 18.5H7V17.086C7 16.273 7.5935 15.579 8.351 15.507C8.782 15.4705 9.1925 15.602 9.5085 15.89C9.821 16.1735 10 16.578 10 17V18.5H14.8205C14.6425 18.8655 14.4855 19.2425 14.3645 19.6345L12.5 20.112V23.8885L14.3645 24.366C14.5105 24.8385 14.699 25.295 14.927 25.7285L13.947 27.383L16.617 30.0535L18.272 29.073C18.705 29.3015 19.1615 29.49 19.634 29.636L20.112 31.5H23.8885L24.366 29.6355C24.8385 29.4895 25.295 29.301 25.728 29.0725L27.383 30.053L30.053 27.3825L29.073 25.728C29.3015 25.295 29.4895 24.8385 29.6355 24.3655L31.5 23.888ZM10.1815 15.15C9.6615 14.677 8.9585 14.4415 8.256 14.512C6.991 14.6325 6 15.763 6 17.086V17.5H2C1.7245 17.5 1.5 17.276 1.5 17V13.5H2C2.703 13.5 3.377 13.2015 3.8505 12.681C4.323 12.161 4.556 11.4595 4.4885 10.756C4.3675 9.491 3.237 8.5 1.914 8.5H1.5V5C1.5 4.724 1.7245 4.5 2 4.5H7V3C7 2.578 7.179 2.1735 7.4915 1.8895C7.808 1.602 8.2175 1.4685 8.649 1.5065C9.4065 1.579 10 2.273 10 3.086V4.5H15C15.2755 4.5 15.5 4.724 15.5 5V8.5H15.086C13.763 8.5 12.6325 9.491 12.5115 10.7565C12.4445 11.4595 12.677 12.1615 13.1495 12.6815C13.623 13.2015 14.297 13.5 15 13.5H15.5V15.065L13.9475 16.6175L14.47 17.5H11V17C11 16.2975 10.7015 15.6225 10.1815 15.15ZM28.8275 23.54L28.7515 23.822C28.5935 24.409 28.362 24.969 28.0635 25.4865L27.9175 25.74L28.7965 27.224L27.224 28.797L25.74 27.9175L25.487 28.0635C24.969 28.362 24.4085 28.5935 23.8215 28.7515L23.5395 28.8275L23.112 30.5H20.8885L20.4605 28.8275L20.1785 28.7515C19.5915 28.5935 19.0315 28.362 18.513 28.0635L18.26 27.9175L16.776 28.797L15.2035 27.224L16.0825 25.74L15.9365 25.4865C15.638 24.969 15.4065 24.409 15.2485 23.822L15.1725 23.54L13.5 23.112V20.8885L15.1725 20.4605L15.2485 20.1785C15.4065 19.5915 15.638 19.0315 15.9365 18.514L16.0825 18.2605L15.2035 16.7765L16.776 15.2035L18.26 16.083L18.513 15.937C19.031 15.6385 19.5915 15.407 20.1785 15.249L20.4605 15.173L20.888 13.5H23.1115L23.5395 15.1725L23.8215 15.2485C24.4085 15.4065 24.9685 15.638 25.487 15.9365L25.74 16.0825L27.224 15.203L28.7965 16.776L27.9175 18.26L28.0635 18.5135C28.362 19.031 28.5935 19.591 28.7515 20.178L28.8275 20.46L30.5 20.888V23.1115L28.8275 23.54Z" fill="white"/>
<path d="M22 18C19.7945 18 18 19.7945 18 22C18 24.2055 19.7945 26 22 26C22.87 26 23.7 25.7215 24.4 25.195L23.799 24.396C23.2735 24.791 22.6515 25 22 25C20.3455 25 19 23.6545 19 22C19 20.3455 20.3455 19 22 19C23.6545 19 25 20.3455 25 22C25 22.6515 24.7915 23.2735 24.396 23.7995L25.1955 24.4C25.7215 23.6995 26 22.87 26 22C26 19.7945 24.2055 18 22 18Z" fill="white"/>
<path d="M22 16C18.6915 16 16 18.6915 16 22C16 25.3085 18.6915 28 22 28C25.3085 28 28 25.3085 28 22C28 18.6915 25.3085 16 22 16ZM22 27C19.243 27 17 24.757 17 22C17 19.243 19.243 17 22 17C24.757 17 27 19.243 27 22C27 24.757 24.757 27 22 27Z" fill="white"/>
<path d="M27 3.5H26V4.5H27V3.5Z" fill="white"/>
<path d="M27 5.5H26V6.5H27V5.5Z" fill="white"/>
<path d="M28 4.5H27V5.5H28V4.5Z" fill="white"/>
<path d="M26 4.5H25V5.5H26V4.5Z" fill="white"/>
<path d="M22 7.5H21V8.5H22V7.5Z" fill="white"/>
<path d="M22 9.5H21V10.5H22V9.5Z" fill="white"/>
<path d="M23 8.5H22V9.5H23V8.5Z" fill="white"/>
<path d="M21 8.5H20V9.5H21V8.5Z" fill="white"/>
<path d="M29 9.5H28V10.5H29V9.5Z" fill="white"/>
<path d="M29 11.5H28V12.5H29V11.5Z" fill="white"/>
<path d="M30 10.5H29V11.5H30V10.5Z" fill="white"/>
<path d="M28 10.5H27V11.5H28V10.5Z" fill="white"/>
<path d="M19.5 1.5H18.5V2.5H19.5V1.5Z" fill="white"/>
<path d="M19.5 3.5H18.5V4.5H19.5V3.5Z" fill="white"/>
<path d="M20.5 2.5H19.5V3.5H20.5V2.5Z" fill="white"/>
<path d="M18.5 2.5H17.5V3.5H18.5V2.5Z" fill="white"/>
<path d="M10 23.5H9V24.5H10V23.5Z" fill="white"/>
<path d="M10 25.5H9V26.5H10V25.5Z" fill="white"/>
<path d="M11 24.5H10V25.5H11V24.5Z" fill="white"/>
<path d="M9 24.5H8V25.5H9V24.5Z" fill="white"/>
<path d="M5 20.5H4V21.5H5V20.5Z" fill="white"/>
<path d="M5 22.5H4V23.5H5V22.5Z" fill="white"/>
<path d="M6 21.5H5V22.5H6V21.5Z" fill="white"/>
<path d="M4 21.5H3V22.5H4V21.5Z" fill="white"/>
</g>
<defs>
<clipPath id="clip0_19_3657">
<rect width="32" height="32" fill="white"/>
</clipPath>
</defs>
</svg>
