<svg width="32" height="32" viewBox="0 0 32 32" fill="none" xmlns="http://www.w3.org/2000/svg">
<g clip-path="url(#clip0_19_3651)">
<path d="M18 28.5H14V29.5H18V28.5Z" fill="white"/>
<path d="M29 5.5H26V3C26 1.6215 24.8785 0.5 23.5 0.5H8.5C7.1215 0.5 6 1.6215 6 3V15.5H3C1.6215 15.5 0.5 16.6215 0.5 18V28.4025L5.1435 25.5H6V29C6 30.3785 7.1215 31.5 8.5 31.5H23.5C24.8785 31.5 26 30.3785 26 29V15.5H26.8565L31.5 18.4025V8C31.5 6.6215 30.3785 5.5 29 5.5ZM8.5 1.5H23.5C24.327 1.5 25 2.173 25 3V3.5H7V3C7 2.173 7.673 1.5 8.5 1.5ZM4.8565 24.5L1.5 26.5975V18C1.5 17.173 2.173 16.5 3 16.5H14C14.827 16.5 15.5 17.173 15.5 18V23C15.5 23.827 14.827 24.5 14 24.5H4.8565ZM23.5 30.5H8.5C7.673 30.5 7 29.827 7 29V27.5H25V29C25 29.827 24.327 30.5 23.5 30.5ZM25 26.5H7V25.5H14C15.3785 25.5 16.5 24.3785 16.5 23V18C16.5 16.6215 15.3785 15.5 14 15.5H7V4.5H25V5.5H18C16.6215 5.5 15.5 6.6215 15.5 8V13C15.5 14.3785 16.6215 15.5 18 15.5H25V26.5ZM30.5 16.5975L27.1435 14.5H26H25H18C17.173 14.5 16.5 13.827 16.5 13V8C16.5 7.173 17.173 6.5 18 6.5H29C29.827 6.5 30.5 7.173 30.5 8V16.5975Z" fill="white"/>
<path d="M23.5 9C22.673 9 22 9.673 22 10.5C22 11.327 22.673 12 23.5 12C24.327 12 25 11.327 25 10.5C25 9.673 24.327 9 23.5 9ZM23.5 11C23.2245 11 23 10.7755 23 10.5C23 10.2245 23.2245 10 23.5 10C23.7755 10 24 10.2245 24 10.5C24 10.7755 23.7755 11 23.5 11Z" fill="white"/>
<path d="M27.5 9C26.673 9 26 9.673 26 10.5C26 11.327 26.673 12 27.5 12C28.327 12 29 11.327 29 10.5C29 9.673 28.327 9 27.5 9ZM27.5 11C27.2245 11 27 10.7755 27 10.5C27 10.2245 27.2245 10 27.5 10C27.7755 10 28 10.2245 28 10.5C28 10.7755 27.7755 11 27.5 11Z" fill="white"/>
<path d="M19.5 9C18.673 9 18 9.673 18 10.5C18 11.327 18.673 12 19.5 12C20.327 12 21 11.327 21 10.5C21 9.673 20.327 9 19.5 9ZM19.5 11C19.2245 11 19 10.7755 19 10.5C19 10.2245 19.2245 10 19.5 10C19.7755 10 20 10.2245 20 10.5C20 10.7755 19.7755 11 19.5 11Z" fill="white"/>
<path d="M11.5 20.592V20.5C11.5 18.8455 10.1545 17.5 8.5 17.5C6.8455 17.5 5.5 18.8455 5.5 20.5V20.592C4.9195 20.799 4.5 21.349 4.5 22C4.5 22.827 5.173 23.5 6 23.5H7.5V20.5H6.5C6.5 19.397 7.397 18.5 8.5 18.5C9.603 18.5 10.5 19.397 10.5 20.5H9.5V23.5H11C11.827 23.5 12.5 22.827 12.5 22C12.5 21.349 12.0805 20.799 11.5 20.592ZM6.5 22.5H6C5.7245 22.5 5.5 22.276 5.5 22C5.5 21.724 5.7245 21.5 6 21.5H6.5V22.5ZM11 22.5H10.5V21.5H11C11.2755 21.5 11.5 21.724 11.5 22C11.5 22.276 11.2755 22.5 11 22.5Z" fill="white"/>
<path d="M18.5 20H17.5V21H18.5V20Z" fill="white"/>
<path d="M20.5 20H19.5V21H20.5V20Z" fill="white"/>
<path d="M22.5 20H21.5V21H22.5V20Z" fill="white"/>
<path d="M10.5 10H9.5V11H10.5V10Z" fill="white"/>
<path d="M12.5 10H11.5V11H12.5V10Z" fill="white"/>
<path d="M14.5 10H13.5V11H14.5V10Z" fill="white"/>
</g>
<defs>
<clipPath id="clip0_19_3651">
<rect width="32" height="32" fill="white"/>
</clipPath>
</defs>
</svg>
