<svg width="32" height="32" viewBox="0 0 32 32" fill="none" xmlns="http://www.w3.org/2000/svg">
<g clip-path="url(#clip0_19_3645)">
<path d="M31.8914 14.4001C31.7349 14.225 31.4665 14.2118 31.2926 14.3679L30.4606 15.1147L25.9483 10.6406C25.7821 10.4761 25.5141 10.4765 25.3487 10.6432C25.1837 10.8094 25.1846 11.0779 25.3512 11.2428L29.8287 15.6821L27.612 17.6715L20.2397 10.2043L27.5679 3.27179C27.738 3.11063 27.7456 2.84219 27.5844 2.67213C27.4229 2.50165 27.1548 2.49529 26.9848 2.65517L19.342 9.88578C19.2593 9.96423 19.2113 10.0724 19.2092 10.1865C19.2071 10.3005 19.2516 10.4104 19.3314 10.4918L20.0103 11.1797L18.5146 12.7445L15.6295 12.4371C15.5019 12.4218 15.3768 12.4676 15.286 12.5575L14.1135 13.7199L11.9337 11.5668L12.6682 10.823C12.7479 10.742 12.7924 10.6317 12.7903 10.5177C12.7882 10.4036 12.7407 10.2954 12.6576 10.217L5.01518 2.9868C4.84555 2.8265 4.57668 2.83286 4.41553 3.00377C4.25438 3.17382 4.26201 3.44227 4.43207 3.60342L9.58934 8.48164L2.03685 15.8925L0.70735 14.6995C0.533476 14.5435 0.265032 14.5575 0.108545 14.7318C-0.0479412 14.9061 -0.0335224 15.1741 0.140776 15.3306L4.12249 18.9043C4.20306 18.9768 4.30484 19.0129 4.40577 19.0129C4.51561 19.0129 4.62503 18.9705 4.70772 18.8869L5.42909 18.1562L9.39468 22.0676L8.66611 22.8084C8.50284 22.9747 8.50368 23.241 8.66865 23.4055L10.1555 24.8924L10.1563 24.8932L10.1572 24.8941L11.6444 26.3644L13.1296 27.8499L14.6164 29.3368C14.6991 29.4194 14.8077 29.461 14.9162 29.461C15.0248 29.461 15.1334 29.4194 15.2161 29.3368L15.9854 28.5675L16.7674 29.3389C16.8496 29.4203 16.9573 29.461 17.0651 29.461C17.1736 29.461 17.2822 29.4194 17.3649 29.3368L18.5519 28.1497L18.727 28.3249C18.8097 28.4076 18.9183 28.4491 19.0269 28.4491C19.1354 28.4491 19.244 28.4076 19.3267 28.3249L20.5137 27.1379L20.6889 27.313C20.7715 27.3957 20.8801 27.4373 20.9887 27.4373C21.0972 27.4373 21.2058 27.3957 21.2885 27.313L22.4755 26.126L22.6502 26.3007C22.7329 26.3834 22.8415 26.425 22.9501 26.425C23.0586 26.425 23.1672 26.3834 23.2499 26.3007L24.7367 24.8139C24.9025 24.6481 24.9025 24.3801 24.7367 24.2143L22.5289 22.0065L26.5191 17.7729L27.2927 18.5566C27.3754 18.6405 27.4848 18.6825 27.5946 18.6825C27.6955 18.6825 27.7973 18.6465 27.8779 18.574L31.8596 15.0002C32.0335 14.8425 32.0479 14.5744 31.8914 14.4001ZM10.443 14.6364C10.443 15.6597 9.61054 16.4917 8.58765 16.4917C8.18053 16.4917 7.78953 16.3577 7.47062 16.1168L10.0681 13.5189C10.309 13.8382 10.443 14.2292 10.443 14.6364ZM10.6695 12.9175L11.3773 12.2098L11.7598 12.5876L10.9803 13.3857C10.8938 13.2199 10.7899 13.063 10.6695 12.9175ZM4.38796 18.0027L2.66916 16.4599L10.206 9.06475L11.7606 10.5355L4.38796 18.0027ZM6.86927 16.7182C7.0194 16.8424 7.1814 16.9489 7.35357 17.0375C7.21914 17.1758 7.08046 17.3195 6.94094 17.4637C6.77216 17.638 6.60761 17.8072 6.44858 17.9705L6.03001 17.5579L6.86927 16.7182ZM9.99858 22.6625L10.89 23.5417L10.4519 23.9891L9.56559 23.1027L9.99858 22.6625ZM11.9405 25.4645L11.0545 24.5887L11.4969 24.1405L12.3866 25.0179L11.9405 25.4645ZM12.9905 25.6137L13.8836 26.4945L13.4286 26.9496L12.5414 26.0624L12.9905 25.6137ZM14.9158 28.4364L14.0286 27.5492L14.4879 27.09L15.381 27.9712L14.9158 28.4364ZM22.9496 25.4L22.7749 25.2253L21.0629 23.5132L21.0625 23.5128L20.5421 22.9925C20.3763 22.8267 20.1083 22.8267 19.9425 22.9925C19.7767 23.1583 19.7767 23.4263 19.9425 23.5921L21.8759 25.5251L20.9887 26.4123L18.5807 24.0043C18.4149 23.8385 18.1469 23.8385 17.9811 24.0043C17.8153 24.1702 17.8153 24.4382 17.9811 24.604L18.5023 25.1252L19.9141 26.5374L19.0269 27.4246L17.6346 26.0327L17.1397 25.5378L17.1393 25.5374L16.6189 25.017C16.4531 24.8512 16.1851 24.8512 16.0193 25.017C15.8535 25.1829 15.8535 25.4509 16.0193 25.6167L16.9925 26.59L17.9522 27.5497L17.0629 28.439L7.05247 18.5659C7.2132 18.4009 7.37987 18.2292 7.54992 18.0532C7.79971 17.7953 8.04568 17.5413 8.2645 17.3191C8.37137 17.3318 8.47866 17.3399 8.58765 17.3399C10.0787 17.3399 11.2912 16.127 11.2912 14.6364C11.2912 14.5248 11.2827 14.4146 11.2691 14.3051L12.3637 13.1839L13.5117 14.3174L9.50834 18.2873C9.42225 18.3725 9.37687 18.4904 9.38366 18.6117C9.39044 18.733 9.44812 18.8449 9.54311 18.9204C9.64192 18.9997 11.9642 20.7584 15.9964 16.6719L23.8368 24.5128L22.9496 25.4ZM21.9284 21.4056L16.2903 15.767C16.2093 15.686 16.1088 15.641 15.9837 15.6427C15.8687 15.6444 15.7602 15.6927 15.6813 15.7763C13.08 18.5443 11.3374 18.6282 10.5516 18.4467L15.7398 13.3018L17.7741 13.5185L17.4688 13.8382C17.3068 14.0074 17.3132 14.2759 17.4819 14.4379C17.6511 14.5995 17.9192 14.5939 18.0816 14.4243L20.5192 11.8743L25.869 17.2241L21.9284 21.4056ZM22.6702 9.23057C22.6702 9.96126 23.2647 10.5558 23.9954 10.5558C24.7261 10.5558 25.3207 9.96126 25.3207 9.23057C25.3207 8.49988 24.7261 7.90531 23.9954 7.90531C23.2647 7.90531 22.6702 8.49988 22.6702 9.23057ZM24.4725 9.23057C24.4725 9.4935 24.2584 9.70766 23.9954 9.70766C23.7325 9.70766 23.5183 9.4935 23.5183 9.23057C23.5183 8.96764 23.7325 8.75348 23.9954 8.75348C24.2584 8.75348 24.4725 8.96764 24.4725 9.23057Z" fill="white"/>
</g>
<defs>
<clipPath id="clip0_19_3645">
<rect width="32" height="32" fill="white"/>
</clipPath>
</defs>
</svg>
