<svg width="16" height="16" viewBox="0 0 16 16" fill="none" xmlns="http://www.w3.org/2000/svg">
<g clip-path="url(#clip0_119_271)">
<path d="M2.8044 6.61953C3.76089 6.61953 4.53628 5.84414 4.53628 4.88765C4.53628 3.93115 3.76089 3.15576 2.8044 3.15576C1.8479 3.15576 1.07251 3.93115 1.07251 4.88765C1.07251 5.84414 1.8479 6.61953 2.8044 6.61953Z" fill="#662D91"/>
<path d="M9.73189 6.61953C10.6884 6.61953 11.4638 5.84414 11.4638 4.88765C11.4638 3.93115 10.6884 3.15576 9.73189 3.15576C8.77539 3.15576 8 3.93115 8 4.88765C8 5.84414 8.77539 6.61953 9.73189 6.61953Z" fill="#662D91"/>
<path d="M13.1956 6.61953C14.1521 6.61953 14.9275 5.84414 14.9275 4.88765C14.9275 3.93115 14.1521 3.15576 13.1956 3.15576C12.2391 3.15576 11.4637 3.93115 11.4637 4.88765C11.4637 5.84414 12.2391 6.61953 13.1956 6.61953Z" fill="#662D91"/>
<path d="M4.55379 9.66348C5.51028 9.66348 6.28567 8.88809 6.28567 7.93159C6.28567 6.9751 5.51028 6.19971 4.55379 6.19971C3.59729 6.19971 2.8219 6.9751 2.8219 7.93159C2.8219 8.88809 3.59729 9.66348 4.55379 9.66348Z" fill="#662D91"/>
<path d="M8.01753 9.66348C8.97402 9.66348 9.74942 8.88809 9.74942 7.93159C9.74942 6.9751 8.97402 6.19971 8.01753 6.19971C7.06104 6.19971 6.28564 6.9751 6.28564 7.93159C6.28564 8.88809 7.06104 9.66348 8.01753 9.66348Z" fill="#662D91"/>
<path d="M8.01753 15.6813C8.97402 15.6813 9.74942 14.9059 9.74942 13.9494C9.74942 12.9929 8.97402 12.2175 8.01753 12.2175C7.06104 12.2175 6.28564 12.9929 6.28564 13.9494C6.28564 14.9059 7.06104 15.6813 8.01753 15.6813Z" fill="#662D91"/>
<path d="M11.4813 9.66348C12.4378 9.66348 13.2132 8.88809 13.2132 7.93159C13.2132 6.9751 12.4378 6.19971 11.4813 6.19971C10.5248 6.19971 9.74939 6.9751 9.74939 7.93159C9.74939 8.88809 10.5248 9.66348 11.4813 9.66348Z" fill="#662D91"/>
<path d="M6.30317 12.6723C7.25967 12.6723 8.03506 11.8969 8.03506 10.9404C8.03506 9.98389 7.25967 9.2085 6.30317 9.2085C5.34668 9.2085 4.57129 9.98389 4.57129 10.9404C4.57129 11.8969 5.34668 12.6723 6.30317 12.6723Z" fill="#662D91"/>
<path d="M9.76692 12.6723C10.7234 12.6723 11.4988 11.8969 11.4988 10.9404C11.4988 9.98389 10.7234 9.2085 9.76692 9.2085C8.81043 9.2085 8.03503 9.98389 8.03503 10.9404C8.03503 11.8969 8.81043 12.6723 9.76692 12.6723Z" fill="#662D91"/>
<path d="M8.51499 3.52969C8.3853 3.66636 8.20172 3.75127 7.99841 3.75041C7.60741 3.74881 7.29175 3.43051 7.29334 3.0395L7.30153 1.05615C7.30313 0.665146 7.6214 0.349487 8.01243 0.35108C8.40344 0.352674 8.7191 0.670978 8.7175 1.06198L8.70931 3.04534C8.70855 3.23306 8.63476 3.40348 8.51499 3.52969Z" fill="#C69C6D"/>
<path d="M8.12149 3.10411C8.89247 3.8751 8.89247 5.12508 8.12149 5.89603C7.35051 6.66698 4.01978 7.20583 4.01978 7.20583C4.01978 7.20583 4.5586 3.8751 5.32958 3.10411C6.10056 2.33313 7.35051 2.33313 8.12149 3.10411Z" fill="#39B54A"/>
<path d="M15.2462 4.88765C15.2462 3.75693 14.3263 2.83705 13.1956 2.83705C12.4677 2.83705 11.8277 3.21855 11.4637 3.79174C11.0997 3.21852 10.4597 2.83705 9.73184 2.83705C9.68852 2.83705 9.64546 2.8389 9.60256 2.84157L10.8299 1.61428C10.8352 1.6089 10.8404 1.60332 10.8454 1.59758C11.1439 1.25289 12.1301 0.35375 12.7256 0.731018C13.1583 1.00505 13.1869 1.40616 13.0799 1.66639C12.9803 1.90865 12.7207 2.13386 12.291 2.03977C12.2289 2.02616 12.1968 1.9942 12.1957 1.94473C12.1938 1.8654 12.2736 1.76338 12.4562 1.71426C12.6262 1.66853 12.727 1.49365 12.6812 1.32368C12.6355 1.15367 12.4607 1.05315 12.2907 1.09866C11.7741 1.23762 11.5507 1.63124 11.5584 1.95974C11.5665 2.3037 11.8061 2.58609 12.1545 2.66248C12.9183 2.82978 13.4656 2.40448 13.6694 1.90884C13.8792 1.39886 13.78 0.64423 13.0667 0.19251C11.9191 -0.53436 10.5044 1.02051 10.3717 1.17104L9.03021 2.51243L9.0362 1.06335C9.03853 0.497237 8.57986 0.0347764 8.01375 0.0324179C7.73847 0.0309518 7.4812 0.137021 7.28647 0.330165C7.09176 0.523308 6.98388 0.780674 6.98276 1.05452L6.97651 2.22259C6.3088 2.1497 5.61501 2.36808 5.1042 2.87886C4.90267 3.08039 4.71919 3.42005 4.55613 3.82275C4.19579 3.23216 3.54538 2.83705 2.80439 2.83705C1.67367 2.83705 0.753784 3.75693 0.753784 4.88765C0.753784 6.00368 1.65015 6.91368 2.76069 6.93711C2.59321 7.23964 2.50317 7.58264 2.50317 7.93154C2.50317 9.04148 3.38972 9.94763 4.49178 9.98059C4.33931 10.2672 4.25252 10.5938 4.25252 10.9405C4.25252 12.0388 5.12058 12.938 6.20665 12.9886C6.05385 13.2754 5.96691 13.6024 5.96691 13.9494C5.96691 15.0801 6.88679 16 8.01748 16C9.1482 16 10.0681 15.0801 10.0681 13.9494C10.0681 13.6027 9.9813 13.2761 9.82882 12.9895C10.9309 12.9565 11.8175 12.0504 11.8175 10.9404C11.8175 10.5935 11.7305 10.2665 11.5778 9.97969C12.6638 9.92911 13.5319 9.02988 13.5319 7.93154C13.5319 7.57053 13.4377 7.23122 13.2732 6.93625C14.368 6.89526 15.2462 5.9923 15.2462 4.88765ZM8.01748 9.34471C7.23828 9.34471 6.60434 8.71075 6.60434 7.93154C6.60434 7.70621 6.65977 7.48205 6.76345 7.28209C6.8772 7.06268 7.05138 6.86466 7.26425 6.73711C7.46642 6.61597 7.70848 6.53087 7.94494 6.5186C8.11921 6.50958 8.29543 6.53479 8.46098 6.58964C8.65406 6.65361 8.83238 6.75993 8.98103 6.8987C9.12923 7.03706 9.24732 7.20703 9.32464 7.39447C9.39473 7.56441 9.43065 7.74774 9.43065 7.93154C9.43065 8.71078 8.79668 9.34471 8.01748 9.34471ZM11.145 4.88765C11.145 5.66686 10.5111 6.30079 9.73184 6.30079C9.29793 6.30079 8.89835 6.10704 8.63146 5.77477C9.03483 5.17198 9.12181 4.41888 8.89224 3.75123C9.13421 3.57195 9.42644 3.47448 9.73184 3.47448C10.5111 3.47452 11.145 4.10845 11.145 4.88765ZM7.6202 1.05754C7.62061 0.953547 7.6615 0.855987 7.73535 0.782777C7.80878 0.70995 7.90606 0.669887 8.00945 0.669887C8.00999 0.669887 8.01056 0.669887 8.01111 0.669887C8.22573 0.670748 8.39966 0.846107 8.39876 1.06076L8.39108 2.92536C8.37639 2.90984 8.36211 2.8941 8.34691 2.87889C8.13002 2.66201 7.87998 2.49825 7.61312 2.3866L7.6202 1.05754ZM5.55493 3.32963C5.87763 3.00689 6.30159 2.84552 6.72552 2.84552C7.0502 2.84552 7.37475 2.94057 7.65398 3.12989L6.67641 4.10746C6.55195 4.23192 6.55195 4.43373 6.67641 4.55822C6.73865 4.62044 6.82021 4.65158 6.90177 4.65158C6.98333 4.65158 7.06493 4.62044 7.12714 4.55822L8.10312 3.58224C8.5318 4.22513 8.46292 5.10403 7.89611 5.67084C7.44395 6.12301 5.67595 6.5767 4.41207 6.81364C4.5169 6.25448 4.66418 5.59671 4.83495 4.99783C4.84071 4.98222 4.84553 4.96618 4.84878 4.94951C5.06101 4.21487 5.30821 3.57635 5.55493 3.32963ZM1.39119 4.88765C1.39119 4.10845 2.02512 3.47448 2.80436 3.47448C3.56558 3.47448 4.18782 4.0796 4.21615 4.83404C4.1396 5.1025 4.07082 5.37277 4.01032 5.62976C4.00277 5.6389 3.99554 5.64847 3.98891 5.65863C3.72654 6.0607 3.28371 6.30075 2.80436 6.30075C2.02512 6.30079 1.39119 5.66689 1.39119 4.88765ZM3.14057 7.93154C3.14057 7.45031 3.39013 7.01045 3.77521 6.75353C3.73862 6.95199 3.71497 7.09446 3.70515 7.15505C3.6888 7.25611 3.72201 7.3589 3.79439 7.43131C3.85466 7.49155 3.9359 7.52467 4.01976 7.52467C4.03668 7.52467 4.0537 7.52333 4.07066 7.52059C4.22817 7.49509 4.93923 7.37605 5.74967 7.1786C5.89204 7.4033 5.96688 7.66066 5.96688 7.93157C5.96688 8.71078 5.33294 9.34474 4.55371 9.34474C3.7745 9.34471 3.14057 8.71078 3.14057 7.93154ZM4.88992 10.9405C4.88992 10.1613 5.52386 9.5273 6.30309 9.5273C7.0823 9.5273 7.71623 10.1613 7.71623 10.9405C7.71623 11.7197 7.0823 12.3536 6.30309 12.3536C5.52386 12.3536 4.88992 11.7197 4.88992 10.9405ZM8.01748 15.3625C7.23828 15.3625 6.60434 14.7286 6.60434 13.9494C6.60434 13.1702 7.23828 12.5362 8.01748 12.5362C8.79672 12.5362 9.43065 13.1702 9.43065 13.9494C9.43065 14.7286 8.79668 15.3625 8.01748 15.3625ZM9.76683 12.3536C8.9876 12.3536 8.35366 11.7196 8.35366 10.9404C8.35366 10.1612 8.9876 9.52727 9.76683 9.52727C10.546 9.52727 11.18 10.1612 11.18 10.9404C11.18 11.7196 10.5461 12.3536 9.76683 12.3536ZM11.4812 9.34471C10.702 9.34471 10.0681 8.71075 10.0681 7.93154C10.0681 7.15234 10.702 6.51838 11.4812 6.51838C12.2604 6.51838 12.8944 7.15234 12.8944 7.93154C12.8944 8.71075 12.2604 9.34471 11.4812 9.34471ZM13.1956 6.30079C12.4164 6.30079 11.7824 5.66686 11.7824 4.88765C11.7824 4.10845 12.4164 3.47448 13.1956 3.47448C13.9748 3.47448 14.6087 4.10845 14.6087 4.88765C14.6087 5.66686 13.9748 6.30079 13.1956 6.30079Z" fill="black"/>
<path d="M5.4443 5.79038C5.50654 5.85259 5.5881 5.88373 5.66966 5.88373C5.75122 5.88373 5.83281 5.85259 5.89503 5.79034L6.30022 5.38513C6.42468 5.26067 6.42468 5.05888 6.30022 4.93439C6.17576 4.80997 5.97394 4.80993 5.84948 4.93443L5.4443 5.33964C5.31984 5.4641 5.31984 5.66588 5.4443 5.79038Z" fill="black"/>
</g>
<defs>
<clipPath id="clip0_119_271">
<rect width="16" height="16" fill="white"/>
</clipPath>
</defs>
</svg>
