<svg width="126" height="30" viewBox="0 0 126 30" fill="none" xmlns="http://www.w3.org/2000/svg">
<path d="M1.80265 23.3349C9.96246 19.546 16.2245 20.0204 24.0992 23.3349C25.0597 23.7392 25.6058 25.1106 25.1105 25.8934C24.3838 27.0415 23.2807 27.1169 22.2968 26.6289C15.6553 23.3349 9.89258 23.335 3.51059 26.6289C2.78257 27.0047 1.32528 27.1429 0.664561 25.8934C0.168101 24.9543 0.85413 23.8892 1.80265 23.3349ZM1.16283 4.51764C8.01102 -1.25602 18.0307 -1.24945 24.8789 4.52419C25.8354 5.33061 26.2499 6.61258 25.945 7.82595L23.3412 18.189C23.0116 19.5003 21.6064 20.2336 20.336 19.7709C15.6368 18.0591 10.4416 18.0516 5.74749 19.7775C4.49013 20.2397 3.10845 19.5146 2.77464 18.2172L0.103291 7.83413C-0.209847 6.61694 0.201951 5.32778 1.16283 4.51764Z" fill="white"/>
<path d="M111.963 12.3676L121.609 12.3597C121.241 9.87871 119.286 8.14342 116.722 8.14552C114.219 8.14757 112.389 9.85493 111.963 12.3676ZM121.369 16.8078L124.756 16.805C123.873 19.9073 120.396 22.3167 116.855 22.3196C112.002 22.3236 108.519 18.6976 108.515 13.642C108.511 8.80357 111.988 5.32695 116.811 5.32301C121.634 5.31906 125.056 8.79003 125.06 13.6595C125.06 14.0317 125.03 14.497 125 14.8692L111.935 14.8489C112.334 17.6399 114.258 19.4993 116.792 19.4973C118.868 19.4956 120.79 18.5451 121.369 16.8078Z" fill="white"/>
<path d="M106.981 22.3227L102.689 22.3262C102.955 21.2173 103.079 17.3936 103.077 15.5022L103.071 8.42346C103.071 7.24951 103.006 6.38867 102.879 5.85398L104.86 5.85236C105.723 5.85165 106.752 5.85081 106.752 5.85081C106.638 6.47701 106.575 7.33795 106.576 8.42059L106.582 15.4994C106.583 17.3907 106.713 21.2142 106.981 22.3227Z" fill="white"/>
<path d="M106.861 2.29668C106.862 3.44366 105.958 4.37421 104.842 4.37512C103.725 4.37603 102.819 3.44697 102.818 2.29999C102.817 1.15302 103.722 0.222472 104.838 0.221558C105.955 0.220645 106.86 1.14971 106.861 2.29668Z" fill="white"/>
<path fill-rule="evenodd" clip-rule="evenodd" d="M84.6163 23.214C85.1271 26.8704 88.5297 29.493 92.2824 29.4899C96.6558 29.4863 99.7854 26.5146 99.7812 21.3888L99.7691 6.62966L100.615 6.47269L100.615 5.53506L96.4987 5.53843L96.7231 8.23316C95.5365 6.35886 93.758 5.23515 91.4443 5.23705C87.2966 5.24044 84.3087 8.8059 84.3127 13.7441C84.3167 18.5573 87.3103 21.9929 91.458 21.9895C93.6871 21.9876 95.298 20.8924 96.4815 19.0474L96.4834 21.3603C96.4861 24.7045 94.8195 26.6124 92.1672 26.6146C90.0792 26.6163 88.216 25.3989 87.7346 23.2114L84.6163 23.214ZM92.385 8.42753C95.1219 8.42529 96.725 10.5147 96.7276 13.734C96.7301 16.8282 94.8977 18.797 92.1608 18.7993C89.4239 18.8015 87.7293 16.8355 87.7268 13.7413C87.7242 10.5221 89.6481 8.42977 92.385 8.42753Z" fill="white"/>
<path fill-rule="evenodd" clip-rule="evenodd" d="M82.0263 5.56438L78.4785 5.56728L78.7011 9.06182C78.0709 5.40805 75.4696 5.41018 73.6905 5.41163C71.6288 5.41332 69.9131 6.19956 68.5434 7.77036C67.1737 9.34116 66.4899 11.3038 66.4918 13.6583C66.4938 16.0559 67.1809 18.055 68.5531 19.6558C69.9359 21.2244 71.6842 22.0078 73.7982 22.0061C75.4727 22.0047 77.0367 21.3046 78.4902 19.9057L78.4919 22.0022L82.0397 21.9993L82.0263 5.56438ZM71.2827 17.3313C70.497 16.3859 70.1036 15.1605 70.1023 13.6554C70.1012 12.247 70.5031 11.064 71.3082 10.1065C72.1237 9.15972 73.1385 8.68583 74.3525 8.68484C75.6397 8.68378 76.6866 9.15061 77.4932 10.0853C78.2998 11.0415 78.7037 12.2561 78.705 13.729C78.7062 15.2019 78.3042 16.4171 77.4992 17.3746C76.6941 18.2999 75.6375 18.7631 74.3293 18.7641C73.1049 18.7651 72.0893 18.2875 71.2827 17.3313Z" fill="white"/>
<path d="M96.4789 21.6698C96.3811 24.8221 94.7365 26.6128 92.1671 26.6149V26.3932C93.4362 26.3921 94.4504 25.9375 95.151 25.0988C95.8557 24.2552 96.263 22.9984 96.2617 21.3606L96.2604 19.75C95.0854 21.2945 93.5288 22.2094 91.4582 22.2111C87.1594 22.2145 84.0953 18.6492 84.0913 13.7446C84.0872 8.72182 87.1394 5.01895 91.4442 5.01543C93.5496 5.01371 95.2288 5.91572 96.4347 7.44255L96.258 5.31734L100.615 5.31366L100.836 5.31325L100.837 6.6571L99.9909 6.81379L100.003 21.3888C100.005 23.9972 99.209 26.0805 97.8334 27.5137C96.4574 28.9473 94.5209 29.7098 92.2829 29.7117C88.435 29.7149 84.9251 27.0253 84.3969 23.2448L84.3617 22.9928L87.9126 22.99L87.951 23.1638C88.4067 25.2339 90.1663 26.3948 92.1671 26.3932V26.6149L91.9724 26.6112C89.9643 26.5394 88.2011 25.3308 87.7346 23.2117L84.6161 23.2142C85.127 26.8705 88.5298 29.493 92.2825 29.49C96.6559 29.4864 99.7849 26.5145 99.7807 21.3888L99.7692 6.6297L100.616 6.47301L100.615 5.53538L96.4989 5.53866L96.7231 8.23332C95.5365 6.35904 93.7579 5.23526 91.4442 5.23716C87.2967 5.24064 84.309 8.80607 84.313 13.7442L84.3151 13.9687C84.4089 18.5895 87.2818 21.887 91.2647 21.9873L91.4582 21.9898C93.6872 21.9879 95.2982 20.8926 96.4818 19.0476L96.4834 21.3606L96.4789 21.6698ZM106.582 15.4996L106.576 8.42069C106.575 7.33808 106.638 6.47697 106.752 5.85079C106.741 5.8508 105.719 5.85172 104.86 5.85243L102.879 5.85406C103.007 6.38874 103.07 7.24965 103.071 8.42355L103.078 15.5024L103.072 16.2932C103.046 18.3073 102.922 21.3561 102.689 22.3264L106.981 22.3228C106.747 21.3527 106.618 18.3043 106.588 16.2903L106.582 15.4996ZM108.518 13.8779C108.626 18.7318 111.969 22.2119 116.629 22.3174L116.856 22.3199C120.396 22.317 123.873 19.9076 124.756 16.8054L121.369 16.8078C120.79 18.5452 118.868 19.4959 116.792 19.4976L116.792 19.2759C118.817 19.2742 120.622 18.3484 121.158 16.7379L121.209 16.5865L125.05 16.5832L124.969 16.8659C124.055 20.0768 120.481 22.5386 116.856 22.5416C111.871 22.5456 108.298 18.8115 108.293 13.6423C108.289 8.68153 111.866 5.10579 116.811 5.10175C121.759 5.09775 125.278 8.67043 125.282 13.6595C125.282 14.041 125.251 14.5136 125.221 14.8872L125.204 15.0913L112.195 15.0708C112.658 17.629 114.464 19.2777 116.792 19.2759L116.792 19.4976L116.557 19.4923C114.14 19.3825 112.321 17.553 111.935 14.8491L125 14.8692C125.022 14.59 125.045 14.2585 125.055 13.9532L125.06 13.6599C125.056 8.7904 121.634 5.31912 116.811 5.32307C111.988 5.32705 108.511 8.80386 108.515 13.6423L108.518 13.8779ZM73.6902 5.19011C74.5712 5.18939 75.7181 5.18501 76.7224 5.66629C77.3713 5.97729 77.9476 6.48371 78.3661 7.29037L78.2573 5.58161L78.2425 5.34597L82.0262 5.34311L82.2479 5.3427L82.2614 22.2209L82.0401 22.2213L78.2708 22.2242L78.2687 20.4082C76.8869 21.6117 75.3962 22.2265 73.7986 22.2278C71.6217 22.2296 69.8121 21.4197 68.3868 19.8028L68.3851 19.8003C66.9738 18.1539 66.2721 16.1013 66.2701 13.6587C66.2682 11.258 66.9671 9.24148 68.3765 7.62501C69.7877 6.00663 71.5638 5.19189 73.6902 5.19011ZM87.7269 13.7413C87.7243 10.5222 89.6483 8.42988 92.3852 8.42764L92.6384 8.43378C95.2206 8.55735 96.725 10.6154 96.7276 13.7339C96.7302 16.8281 94.8978 18.797 92.161 18.7993L92.1606 18.578C93.4732 18.5769 94.554 18.1056 95.3077 17.2771C96.0631 16.4467 96.5071 15.2381 96.5059 13.7343C96.5046 12.1587 96.1118 10.8856 95.4091 10.0116C94.7112 9.1435 93.6917 8.6483 92.3852 8.64937C91.0764 8.65048 89.9727 9.14968 89.1943 10.0255C88.4141 10.9034 87.9473 12.1755 87.9486 13.7413C87.9498 15.2495 88.3631 16.4582 89.0854 17.2861C89.8047 18.1103 90.8488 18.579 92.1606 18.578L92.161 18.7993L91.9073 18.794C89.3197 18.6777 87.7293 16.7388 87.7269 13.7413ZM70.1025 13.6554C70.1014 12.2471 70.5031 11.064 71.3081 10.1065C72.1236 9.15977 73.1385 8.68596 74.3525 8.68496C75.6398 8.6839 76.6869 9.15098 77.4935 10.0857C78.3 11.0418 78.704 12.2563 78.7052 13.729L78.7007 14.0023C78.6546 15.353 78.254 16.4771 77.4992 17.3748C76.6942 18.3001 75.6374 18.7634 74.3292 18.7645V18.5428C75.5781 18.5417 76.572 18.1026 77.3319 17.2292C78.096 16.319 78.4846 15.1583 78.4835 13.7294C78.4823 12.299 78.0909 11.1379 77.3237 10.2285C76.5616 9.34641 75.5777 8.90573 74.3529 8.90668C73.2055 8.90762 72.2511 9.35177 71.4762 10.2514C70.7102 11.1635 70.3231 12.2932 70.3242 13.6554C70.3254 15.1209 70.7076 16.2925 71.4533 17.1899C72.2186 18.0965 73.1723 18.5437 74.3292 18.5428V18.7645L74.1022 18.7588C72.9788 18.7036 72.0389 18.2279 71.2827 17.3315C70.5462 16.4451 70.1545 15.3127 70.1074 13.9344L70.1025 13.6554ZM116.96 8.15069C119.407 8.25289 121.252 9.95638 121.609 12.3598L111.963 12.3676C112.389 9.85503 114.219 8.14783 116.722 8.14578L116.96 8.15069ZM116.722 8.3675C114.425 8.36946 112.719 9.87207 112.232 12.1458L121.345 12.1381C120.902 9.90128 119.086 8.36557 116.722 8.3675ZM104.838 6.33572e-07C106.083 -0.000934303 107.082 1.03299 107.083 2.29663C107.084 3.56031 106.086 4.59588 104.842 4.59693C103.597 4.59795 102.598 3.56402 102.597 2.30031C102.596 1.03661 103.594 0.00101893 104.838 6.33572e-07ZM66.4939 13.882C66.5373 16.1805 67.2239 18.1051 68.5533 19.6559C69.936 21.2244 71.6842 22.0078 73.7982 22.0061C75.4727 22.0047 77.0369 21.3047 78.4904 19.9059L78.4921 22.0024L82.0397 21.9996L82.0262 5.56443L78.4786 5.56729L78.7011 9.06214C78.1103 5.63669 75.7871 5.42419 74.033 5.41225L73.6906 5.41184C71.6289 5.41352 69.9131 6.19984 68.5435 7.77064L68.417 7.91914C67.1318 9.46456 66.49 11.3778 66.4919 13.6587L66.4939 13.882ZM106.803 15.4996C106.804 16.4414 106.837 17.8663 106.903 19.1936C106.969 20.5302 107.068 21.7408 107.196 22.2708L107.262 22.5445L102.408 22.5482L102.474 22.2749C102.601 21.7447 102.698 20.534 102.762 19.1973C102.826 17.8698 102.857 16.4443 102.856 15.5024L102.85 8.42396C102.849 7.25233 102.784 6.41345 102.664 5.90561L102.598 5.63275L104.859 5.6307C105.291 5.63035 105.764 5.63018 106.129 5.62988C106.312 5.62973 106.467 5.62956 106.577 5.62947H106.752L107.017 5.62906L106.97 5.89047C106.859 6.49833 106.797 7.34478 106.798 8.42069L106.803 15.4996ZM102.821 2.40708C102.876 3.50427 103.76 4.37601 104.841 4.37521C105.923 4.37432 106.806 3.50113 106.859 2.40381L106.862 2.29703C106.861 1.15006 105.955 0.220813 104.838 0.221727C103.722 0.222657 102.818 1.15334 102.819 2.30031L102.821 2.40708Z" fill="white"/>
<path fill-rule="evenodd" clip-rule="evenodd" d="M61.6051 4.98318C60.5838 5.18595 59.5459 6.15553 58.2788 8.09072C58.1512 8.28567 58.0468 8.45435 58.0468 8.46561C58.0468 8.47697 58.0091 8.53505 57.9629 8.59475C57.9168 8.65444 57.879 8.71103 57.879 8.72035C57.879 8.72957 57.743 8.95924 57.5769 9.2307C57.4107 9.50206 57.2748 9.73784 57.2748 9.75466C57.2748 9.77138 57.2542 9.80868 57.2292 9.8374C57.2041 9.86623 57.1279 9.99087 57.0602 10.1143C56.9923 10.2379 56.9043 10.3945 56.8648 10.4622C56.8253 10.5299 56.7313 10.6998 56.6562 10.8395C56.5809 10.9792 56.442 11.2327 56.3474 11.4026C56.2528 11.5727 56.0884 11.8758 55.9819 12.0762C55.8756 12.2766 55.7774 12.4556 55.7636 12.4738C55.75 12.492 55.6174 12.738 55.469 13.0204C55.3207 13.3028 55.0796 13.7575 54.9331 14.0308C54.7867 14.3041 54.5793 14.6917 54.4722 14.8921C54.3651 15.0926 54.2367 15.3311 54.1865 15.4222C54.1364 15.5133 54.0309 15.7072 53.9519 15.8529C53.873 15.9987 53.782 16.1627 53.7497 16.2173C53.6759 16.3425 53.545 16.5773 53.3711 16.8965C53.2967 17.0331 53.2079 17.1845 53.174 17.2329C53.14 17.2812 53.1122 17.3285 53.1122 17.3378C53.1122 17.3472 53.0215 17.5064 52.9107 17.6916C52.8 17.8768 52.7093 18.034 52.7093 18.0409C52.7093 18.0479 52.6262 18.1808 52.5247 18.3361C52.4231 18.4915 52.34 18.6292 52.34 18.6423C52.34 18.6972 51.6919 19.6107 51.6648 19.5941C51.5436 19.5201 51.7596 16.7793 52.0903 14.1965C52.1183 13.9779 52.1551 13.6871 52.1722 13.5505C52.1892 13.4138 52.2268 13.1306 52.2558 12.921C52.3134 12.5039 52.3379 12.2841 52.4898 10.8174C52.6428 9.3397 52.6219 7.87123 52.4413 7.40504C52.4271 7.3686 52.3894 7.24943 52.3574 7.14C51.9477 5.7412 50.3785 5.21231 48.8992 5.97451C48.2717 6.29785 47.2576 7.20248 46.725 7.91421C46.5843 8.10197 46.5088 8.19629 46.4463 8.26187C46.2532 8.46464 44.7219 10.7289 44.4043 11.2811C44.3519 11.3722 44.2525 11.5363 44.1832 11.6456C44.114 11.7549 43.9176 12.0754 43.7467 12.3579C43.3297 13.0471 43.3484 13.0159 43.0822 13.4704C42.9533 13.6906 42.8084 13.9326 42.76 14.0081C42.7117 14.0836 42.6722 14.1543 42.6722 14.165C42.6722 14.1757 42.6269 14.2495 42.5715 14.329C42.5161 14.4085 42.4707 14.4824 42.4707 14.4934C42.4707 14.5043 42.4066 14.6177 42.328 14.7453C42.2496 14.873 42.161 15.0179 42.1313 15.0673C42.0666 15.1746 41.5496 16.0094 41.46 16.1511C41.4254 16.2057 41.3865 16.2728 41.3736 16.3002C41.212 16.6422 39.723 18.78 39.6439 18.7836C39.4801 18.7913 39.385 17.0031 39.3836 13.892C39.3829 12.5219 39.3711 11.3941 39.3572 11.3857C39.3434 11.3772 38.6487 11.36 37.8135 11.3472L36.295 11.3241L36.2609 11.4124C36.2164 11.5281 36.2156 15.9377 36.2599 17.0124C36.3606 19.4497 36.7701 20.8262 37.6499 21.6836C38.9784 22.9783 40.6599 22.5923 42.196 20.64C42.3465 20.4487 42.4865 20.2726 42.507 20.2488C42.5622 20.1845 43.3384 19.0691 43.5124 18.8041C43.846 18.2957 45.0505 16.3431 45.0864 16.2527C45.094 16.2333 45.1658 16.1166 45.2458 15.9934C45.3258 15.8702 45.3913 15.7618 45.3913 15.7525C45.3913 15.7432 45.4268 15.68 45.4704 15.612C45.5139 15.5441 45.6828 15.2649 45.8456 14.9916C46.0085 14.7182 46.2675 14.2877 46.4211 14.0348C46.5748 13.7818 46.7004 13.562 46.7004 13.5462C46.7004 13.5303 46.7155 13.5173 46.734 13.5173C46.7525 13.5173 46.7676 13.5043 46.7676 13.4883C46.7676 13.4723 46.8909 13.2599 47.0416 13.0162C47.1923 12.7725 47.3513 12.5136 47.3949 12.4407C47.5162 12.2379 48.2421 11.141 48.4125 10.9031C48.4955 10.7872 48.6127 10.6235 48.6728 10.5395C49.0514 10.0095 49.3452 9.66603 49.3941 9.69593C49.427 9.71598 49.4083 10.1061 49.3522 10.5688C49.3357 10.7055 49.3053 10.9813 49.2847 11.1818C49.2641 11.3822 49.2106 11.8443 49.166 12.2088C49.0881 12.8442 49.0623 13.0473 48.9842 13.6333C48.9161 14.1446 48.8115 14.9943 48.7824 15.2731C48.7663 15.428 48.7225 15.838 48.685 16.1842C48.6477 16.5304 48.6016 17.0298 48.5828 17.294C48.5639 17.5582 48.533 17.9757 48.514 18.2216C48.4097 19.5741 48.5951 21.2156 48.9369 21.9651C49.2983 22.7581 49.6687 23.1216 50.4322 23.4332C51.3265 23.7981 52.5146 23.4062 53.3974 22.455C53.7372 22.089 53.7359 22.0906 54.2467 21.4351C54.3784 21.2659 54.7906 20.6747 54.7906 20.6549C54.7906 20.6435 54.8335 20.5722 54.886 20.4963C55.01 20.3172 55.1655 20.0778 55.2124 19.994C55.2327 19.9576 55.3481 19.7637 55.4687 19.5633C55.7032 19.1734 55.9182 18.8042 56.0666 18.5363C56.1171 18.4452 56.2359 18.2337 56.3305 18.0664C56.4252 17.899 56.5026 17.7544 56.5026 17.7448C56.5026 17.7354 56.5455 17.6559 56.5979 17.5681C56.6946 17.4063 57.0071 16.8315 57.2601 16.3499C57.3367 16.204 57.4638 15.9656 57.5428 15.8198C57.6217 15.6741 57.7502 15.4355 57.8284 15.2897C58.1719 14.6488 58.3593 14.2999 58.5848 13.8817C58.7172 13.6358 58.8832 13.3278 58.9534 13.1973C59.0236 13.0669 59.1183 12.8955 59.1639 12.8163C59.2094 12.7372 59.3115 12.5533 59.3906 12.4075C59.7254 11.7913 59.7719 11.7079 59.8242 11.629C59.8544 11.5834 59.9224 11.4642 59.9755 11.364C60.0285 11.2637 60.1148 11.1195 60.1671 11.0433C60.2196 10.9671 60.2623 10.8967 60.2623 10.8868C60.2623 10.8614 60.7136 10.1238 60.9884 9.69958C61.5415 8.8466 61.6749 8.67202 61.7314 8.72786C61.8229 8.8182 61.8488 12.3527 61.7767 14.9088C61.7564 15.6284 61.7397 17.5238 61.7396 19.1207L61.7395 22.0242L61.8485 22.0361C61.9086 22.0426 62.6336 22.0433 63.4598 22.0376L64.9621 22.0271L64.9682 19.6025C64.9964 8.49165 64.9738 7.89074 64.4837 6.70939C63.9586 5.4438 62.7962 4.74676 61.6051 4.98318Z" fill="white"/>
<path d="M61.5813 4.86275C62.8397 4.61296 64.0537 5.35268 64.5971 6.66233C64.8499 7.27182 64.9793 7.73371 65.043 9.42777C65.1065 11.1177 65.1053 14.049 65.0912 19.603L65.0847 22.1492L63.4606 22.1607C63.0473 22.1635 62.6591 22.1646 62.3667 22.1643C62.2206 22.1642 62.0982 22.1636 62.0083 22.1627C61.923 22.1619 61.8581 22.1607 61.8353 22.1582L61.6168 22.1345V19.1207C61.617 17.5238 61.6337 15.627 61.6541 14.9055C61.6901 13.6291 61.7014 12.108 61.6925 10.8948C61.6881 10.2881 61.6788 9.7593 61.6647 9.37704C61.6582 9.20001 61.6501 9.05559 61.6418 8.94995C61.5356 9.0892 61.3672 9.34136 61.0916 9.7665C60.9549 9.9774 60.7741 10.2669 60.6273 10.5069C60.5539 10.6269 60.4892 10.7341 60.4432 10.8125C60.4201 10.8518 60.402 10.8831 60.39 10.905C60.3846 10.9148 60.3808 10.9218 60.3785 10.9263C60.3767 10.9323 60.3751 10.9375 60.3736 10.941C60.3705 10.9485 60.3669 10.9559 60.3638 10.9619C60.3573 10.9742 60.3485 10.9888 60.3393 11.004C60.3206 11.0347 60.2957 11.0736 60.2685 11.1132C60.2193 11.1848 60.1356 11.3249 60.0844 11.4217C60.031 11.5224 59.9602 11.6462 59.9265 11.697C59.8781 11.77 59.835 11.8469 59.4986 12.4661C59.4192 12.6123 59.3166 12.7972 59.2703 12.8776L59.0617 13.2556C58.9914 13.386 58.8256 13.6941 58.6931 13.94C58.4677 14.3581 58.2801 14.7068 57.9367 15.3477C57.8584 15.4935 57.7298 15.7324 57.6507 15.8783C57.572 16.0236 57.4452 16.2619 57.3689 16.4072C57.1792 16.7682 56.9551 17.1835 56.8133 17.4381L56.7033 17.6312C56.6779 17.6738 56.6553 17.7141 56.6391 17.7441C56.6308 17.7594 56.6246 17.771 56.6211 17.7785C56.6197 17.7835 56.6183 17.7878 56.6174 17.7904C56.6154 17.7957 56.6133 17.8006 56.6116 17.8043C56.6082 17.812 56.6036 17.8211 56.599 17.8305C56.5895 17.8495 56.5763 17.875 56.5605 17.9045L56.4374 18.127C56.3429 18.2942 56.2246 18.5052 56.1743 18.5959C56.0996 18.7307 56.008 18.8907 55.906 19.0659L55.5742 19.6268C55.453 19.8281 55.3389 20.0196 55.3197 20.0539C55.2697 20.1432 55.1113 20.3871 54.9872 20.5664C54.9621 20.6027 54.9398 20.6373 54.9242 20.6634C54.9162 20.6766 54.9108 20.6861 54.9078 20.692L54.907 20.6929C54.9066 20.6941 54.9067 20.6952 54.9066 20.6957C54.9045 20.7017 54.9026 20.7067 54.9012 20.7096C54.8985 20.7156 54.8956 20.7213 54.8935 20.7252C54.8889 20.7333 54.8828 20.7428 54.8767 20.7526C54.8642 20.7725 54.8469 20.7992 54.8264 20.8299C54.7851 20.8917 54.7289 20.9734 54.6689 21.0594C54.5495 21.2306 54.4118 21.4231 54.3437 21.5106C53.832 22.1674 53.8307 22.1689 53.4874 22.5387C52.5844 23.5114 51.3446 23.9383 50.3857 23.5471C49.9948 23.3875 49.6959 23.211 49.4477 22.9674C49.1999 22.7241 49.0092 22.4204 48.8251 22.0163C48.6461 21.6237 48.5125 21.0105 48.436 20.3333C48.3592 19.6533 48.3386 18.8969 48.3914 18.2121C48.4104 17.9664 48.4417 17.5492 48.4606 17.2851C48.4795 17.019 48.5254 16.5183 48.5628 16.1712C48.6003 15.8252 48.644 15.4153 48.6602 15.2606C48.6895 14.98 48.7946 14.1289 48.8627 13.6172C48.9407 13.0317 48.9665 12.829 49.0443 12.194C49.0889 11.8298 49.142 11.3685 49.1625 11.1693C49.1832 10.9685 49.2138 10.6921 49.2305 10.5544C49.2582 10.3252 49.2767 10.1145 49.284 9.9604C49.2842 9.95683 49.2839 9.95327 49.284 9.94977C49.2735 9.9618 49.262 9.97435 49.2505 9.98781C49.1268 10.1324 48.9609 10.3475 48.7727 10.6109C48.7126 10.6949 48.5956 10.859 48.5125 10.9749C48.3436 11.2108 47.6199 12.3041 47.5004 12.5037L47.1462 13.0809C47.0712 13.2021 47.0033 13.3153 46.9543 13.3996C46.9298 13.4418 46.9104 13.4761 46.8974 13.5002C46.8929 13.5086 46.8892 13.515 46.8868 13.5199C46.8763 13.5715 46.8407 13.6062 46.8001 13.6246C46.7961 13.6327 46.7919 13.6418 46.787 13.6512C46.7719 13.6797 46.7507 13.7178 46.7252 13.7625C46.6739 13.8522 46.6036 13.9716 46.5264 14.0987C46.3729 14.3514 46.1139 14.7817 45.9512 15.0548L45.9508 15.0544C45.7885 15.3268 45.6191 15.6079 45.574 15.6782C45.5533 15.7106 45.5346 15.7415 45.5217 15.7646C45.5159 15.7748 45.5115 15.7823 45.509 15.7875C45.5071 15.7942 45.5058 15.7983 45.5057 15.7985C45.5035 15.8044 45.5012 15.8097 45.4996 15.8132C45.4961 15.8206 45.4914 15.8286 45.4873 15.8361C45.4788 15.8516 45.4673 15.8715 45.4538 15.8938C45.4265 15.9389 45.3895 15.9979 45.349 16.0603C45.3095 16.1212 45.2718 16.1804 45.2435 16.2264C45.2293 16.2494 45.2178 16.269 45.2095 16.2833C45.199 16.3014 45.1987 16.3033 45.2009 16.2976L45.2005 16.298C45.1946 16.313 45.183 16.3339 45.1735 16.3508C45.1621 16.3712 45.1468 16.3979 45.1281 16.4297C45.0907 16.4934 45.0393 16.5797 44.9776 16.6817C44.8542 16.8858 44.6894 17.1545 44.5157 17.4361C44.1686 17.9988 43.7832 18.6157 43.6153 18.8716C43.5272 19.0058 43.2884 19.3525 43.0659 19.6722C42.9545 19.8323 42.8466 19.9861 42.7632 20.1042C42.6827 20.218 42.6191 20.3068 42.6004 20.3288L42.5999 20.3292C42.5815 20.3506 42.4443 20.5235 42.2927 20.7162C41.5156 21.7039 40.689 22.312 39.8726 22.4994C39.0482 22.6886 38.254 22.4441 37.5641 21.7716C36.7053 20.9347 36.2912 19.6348 36.1597 17.4635L36.1372 17.0176C36.1149 16.4772 36.1042 15.1035 36.1044 13.8529C36.1045 13.2271 36.1074 12.631 36.113 12.1838C36.1158 11.9603 36.1194 11.7734 36.1237 11.6385C36.1258 11.5712 36.1281 11.5157 36.1306 11.4749C36.1319 11.4546 36.1331 11.4366 36.1347 11.4221C36.1357 11.4135 36.1381 11.3891 36.1462 11.3681L36.1805 11.2801L36.2112 11.1999L36.2971 11.2012L37.8152 11.2245C38.2331 11.2309 38.6162 11.2384 38.8965 11.2454C39.0365 11.2488 39.1514 11.2521 39.2323 11.2552C39.2726 11.2567 39.3052 11.2583 39.3285 11.2597C39.3399 11.2603 39.3503 11.2609 39.3587 11.2617C39.3627 11.2621 39.3681 11.2629 39.3735 11.2638C39.376 11.2642 39.3805 11.2649 39.3857 11.2662C39.3872 11.2666 39.4041 11.2701 39.4217 11.2809C39.4501 11.2983 39.4626 11.3219 39.4659 11.328C39.4709 11.3373 39.4736 11.3456 39.4749 11.3497C39.4776 11.358 39.4788 11.3652 39.4794 11.3685C39.4807 11.3759 39.4818 11.3834 39.4823 11.3889C39.4834 11.4008 39.4843 11.4164 39.4851 11.4339C39.4869 11.4698 39.4885 11.521 39.4901 11.5853C39.4931 11.7144 39.4958 11.8997 39.4982 12.1269C39.503 12.5817 39.5061 13.2068 39.5064 13.8922C39.5071 15.4468 39.5313 16.669 39.5756 17.5007C39.5977 17.9172 39.6246 18.2327 39.6557 18.442C39.6627 18.4889 39.6701 18.5293 39.677 18.5635C39.7183 18.5112 39.7693 18.4456 39.8263 18.3688C39.9785 18.164 40.1763 17.887 40.377 17.5989C40.5776 17.3108 40.7808 17.0122 40.9435 16.7648C41.1088 16.5136 41.2268 16.3236 41.2626 16.2477C41.279 16.2131 41.3213 16.1406 41.3563 16.0853C41.4459 15.9435 41.9619 15.1106 42.026 15.0041C42.0561 14.9541 42.1452 14.8088 42.2236 14.6813C42.2622 14.6185 42.2972 14.5592 42.3222 14.5152C42.3347 14.4931 42.3439 14.4756 42.35 14.4637C42.3515 14.4608 42.3525 14.4583 42.3533 14.4567L42.3537 14.4555C42.3557 14.4488 42.3578 14.443 42.3594 14.4391C42.3627 14.4311 42.3667 14.4234 42.37 14.417C42.3769 14.4039 42.386 14.3888 42.3958 14.3728C42.4156 14.3406 42.4419 14.3 42.4707 14.2587C42.4973 14.2206 42.5214 14.1845 42.5382 14.1572C42.5462 14.1442 42.5515 14.1342 42.5549 14.1278C42.557 14.1204 42.5588 14.1154 42.559 14.1147C42.5619 14.107 42.5655 14.0996 42.5684 14.0934C42.5745 14.0808 42.5824 14.0661 42.5909 14.0509C42.6083 14.02 42.6317 13.9814 42.6568 13.9421L42.7857 13.7306C42.8436 13.6339 42.9118 13.5189 42.9763 13.4086C43.2429 12.9534 43.2243 12.9837 43.6415 12.2943C43.8123 12.0118 44.0097 11.6905 44.0796 11.58L44.195 11.393C44.2346 11.3277 44.272 11.2647 44.2977 11.22L44.4707 10.9369C44.6905 10.5884 45.0357 10.0664 45.3703 9.57177C45.5939 9.24119 45.8138 8.9212 45.9901 8.67095C46.1628 8.42565 46.3012 8.23619 46.3574 8.17718L46.4037 8.12605C46.4544 8.06707 46.5209 7.98162 46.6266 7.8405C46.8992 7.47626 47.2922 7.06644 47.6947 6.70733C48.0963 6.34907 48.5158 6.03404 48.8431 5.86542C49.6085 5.47106 50.4052 5.40691 51.0689 5.63061C51.7342 5.8549 52.2589 6.3669 52.4754 7.10578C52.5074 7.21563 52.544 7.32971 52.5559 7.36064C52.607 7.49256 52.6436 7.68484 52.6688 7.91373C52.6944 8.14507 52.7091 8.42264 52.7134 8.73027C52.7222 9.34565 52.6889 10.087 52.612 10.8301C52.4601 12.2963 52.4356 12.5185 52.3776 12.9382C52.3486 13.1473 52.3111 13.4298 52.2941 13.5657C52.2771 13.7025 52.2403 13.9934 52.2123 14.2121C52.0472 15.5017 51.9106 16.8309 51.8306 17.846C51.7906 18.3538 51.7649 18.7818 51.7566 19.0864C51.7545 19.1637 51.7535 19.2325 51.7537 19.2921C51.8028 19.2259 51.858 19.1509 51.9124 19.0741C51.9946 18.9583 52.0757 18.8407 52.1358 18.7493C52.1659 18.7035 52.1899 18.6652 52.2062 18.6376C52.2133 18.6255 52.2179 18.6164 52.2209 18.6106C52.2228 18.6031 52.225 18.5982 52.2254 18.5971C52.2278 18.5905 52.2304 18.5846 52.2324 18.5803C52.2364 18.5715 52.2415 18.5616 52.2467 18.5521C52.2573 18.5327 52.2721 18.5076 52.2892 18.4793C52.3236 18.4222 52.3704 18.3476 52.4218 18.269L52.551 18.0677C52.5675 18.0414 52.5805 18.0205 52.5891 18.006C52.5922 18.0006 52.5941 17.9963 52.5956 17.9937C52.5964 17.9916 52.5972 17.99 52.5977 17.9888C52.5997 17.9841 52.6021 17.9795 52.6038 17.9761C52.6074 17.9689 52.6124 17.96 52.6177 17.9503C52.6285 17.9306 52.6439 17.9036 52.6623 17.8718C52.6992 17.8078 52.7499 17.7217 52.8055 17.6288C52.8605 17.5368 52.9102 17.4514 52.9462 17.3882C52.9642 17.3566 52.9785 17.3311 52.9879 17.3134C52.9919 17.306 52.9944 17.3004 52.9961 17.297C52.9971 17.294 52.9978 17.2919 52.9982 17.2909C53.001 17.2832 53.0038 17.2761 53.0063 17.2708C53.0115 17.2601 53.0179 17.2486 53.0243 17.2377C53.0375 17.2154 53.0549 17.1888 53.0734 17.1624C53.1028 17.1206 53.1887 16.975 53.2633 16.838C53.4371 16.519 53.5691 16.282 53.6441 16.1548C53.6752 16.1022 53.7652 15.9401 53.8442 15.7944C53.9231 15.6486 54.0287 15.4546 54.079 15.3632C54.1287 15.2729 54.257 15.0347 54.3641 14.8343C54.4712 14.6338 54.6784 14.246 54.8247 13.9727C54.971 13.6998 55.212 13.2457 55.3602 12.9635C55.4345 12.8221 55.505 12.6895 55.5587 12.59C55.5854 12.5403 55.6083 12.4984 55.6253 12.4677C55.6338 12.4525 55.6413 12.4396 55.647 12.4297C55.651 12.4228 55.6584 12.4096 55.6654 12.4002L55.6658 12.3998C55.6632 12.4033 55.667 12.3975 55.6818 12.3716C55.6941 12.3499 55.7109 12.3202 55.7305 12.2844C55.7697 12.213 55.8207 12.1187 55.8737 12.0189C55.9804 11.8179 56.1452 11.514 56.2402 11.3431L56.5482 10.7814C56.6235 10.6416 56.7182 10.4703 56.7589 10.4006C56.7977 10.3342 56.8847 10.1785 56.9524 10.0553L57.0559 9.87654C57.0851 9.82873 57.1158 9.78044 57.1365 9.75668C57.1397 9.75308 57.1432 9.74888 57.1463 9.7444C57.1494 9.74002 57.1518 9.73589 57.1537 9.73254C57.1547 9.73063 57.1554 9.7291 57.1557 9.72845C57.1555 9.72923 57.1548 9.73136 57.1541 9.73459C57.1537 9.73644 57.1533 9.73918 57.1529 9.74236C57.1525 9.74546 57.1521 9.74962 57.1521 9.75463C57.1521 9.73728 57.1559 9.7238 57.157 9.71986C57.1586 9.71385 57.1602 9.70852 57.1615 9.70513C57.1641 9.69835 57.1671 9.69177 57.1696 9.68631C57.175 9.67495 57.1825 9.66123 57.1905 9.64622C57.2068 9.6158 57.2296 9.5747 57.2572 9.52677C57.3126 9.43069 57.3885 9.30301 57.472 9.16677L57.6847 8.81455C57.7119 8.76861 57.7337 8.73136 57.7485 8.70532C57.756 8.69218 57.7609 8.68262 57.7641 8.67668C57.7663 8.67011 57.7679 8.66579 57.7681 8.66523C57.7716 8.65741 57.7757 8.65024 57.7788 8.64477C57.7852 8.63346 57.7933 8.6209 57.8017 8.60836C57.8188 8.58279 57.8415 8.5512 57.8659 8.51959C57.8873 8.49194 57.9061 8.46518 57.9191 8.44514C57.9242 8.43721 57.9275 8.43109 57.9297 8.42714C57.9314 8.42169 57.9335 8.41729 57.9346 8.41446C57.9372 8.40838 57.9403 8.40271 57.9424 8.3985C57.9469 8.38975 57.9526 8.37943 57.9588 8.36864C57.9715 8.34656 57.9894 8.31671 58.0107 8.28232C58.0535 8.2133 58.1119 8.12137 58.176 8.02337C58.8122 7.05179 59.3946 6.31658 59.9502 5.79751C60.5061 5.27822 61.0409 4.97003 61.5813 4.86275ZM64.4837 6.70937C63.9587 5.44391 62.7964 4.7471 61.6054 4.98343C60.5841 5.18619 59.5462 6.15571 58.2791 8.09087C58.1519 8.28516 58.0474 8.45333 58.0467 8.46559C58.0467 8.47695 58.009 8.53517 57.9629 8.59486C57.9168 8.65451 57.879 8.71111 57.879 8.72045C57.879 8.72967 57.7432 8.95953 57.5771 9.231C57.4114 9.50159 57.2755 9.73667 57.2748 9.75463C57.2748 9.77135 57.2545 9.80895 57.2294 9.83768C57.2043 9.86655 57.1282 9.9912 57.0604 10.1146C56.9926 10.2382 56.9044 10.3946 56.8649 10.4624C56.8253 10.5301 56.7314 10.6999 56.6562 10.8395C56.581 10.9793 56.4421 11.2329 56.3474 11.4029C56.2528 11.5729 56.0885 11.8758 55.9821 12.0762C55.8757 12.2766 55.7774 12.4556 55.7636 12.4738C55.7499 12.4921 55.6174 12.738 55.4691 13.0204C55.3207 13.3028 55.0797 13.7575 54.9332 14.0308C54.7868 14.3041 54.5792 14.692 54.4721 14.8924C54.3651 15.0927 54.2368 15.331 54.1866 15.4221C54.1365 15.5132 54.0311 15.7072 53.9522 15.8529C53.8732 15.9987 53.7819 16.1628 53.7497 16.2174C53.6758 16.3426 53.5452 16.5775 53.3713 16.8965C53.2969 17.0331 53.2081 17.1849 53.1741 17.2332C53.1401 17.2815 53.1123 17.3286 53.1123 17.3379C53.1123 17.3474 53.0214 17.5066 52.9106 17.6918C52.7999 17.8769 52.7093 18.0342 52.7093 18.0411C52.7088 18.049 52.626 18.1814 52.5249 18.3361C52.4233 18.4915 52.3399 18.6294 52.3399 18.6425C52.3391 18.6984 51.6921 19.6106 51.6649 19.594C51.5438 19.5199 51.7597 16.7792 52.0904 14.1965C52.1184 13.9779 52.1552 13.6872 52.1722 13.5506C52.1893 13.4139 52.2267 13.1305 52.2557 12.921C52.3133 12.504 52.3382 12.284 52.4901 10.8174C52.6431 9.33988 52.622 7.87153 52.4414 7.40523C52.4273 7.3688 52.3895 7.24956 52.3575 7.14014C51.9478 5.74134 50.3784 5.21245 48.8991 5.97465C48.2717 6.29802 47.2579 7.2025 46.7252 7.91414C46.5846 8.1019 46.5086 8.19628 46.4462 8.26187C46.253 8.46489 44.7221 10.7291 44.4044 11.2814C44.3521 11.3725 44.2524 11.5366 44.1831 11.6458C44.1139 11.7553 43.9174 12.0757 43.7466 12.3581C43.3297 13.0471 43.3484 13.016 43.0823 13.4704C42.9534 13.6906 42.8086 13.9329 42.7603 14.0083C42.7121 14.0837 42.6725 14.154 42.6724 14.165C42.6724 14.1757 42.6271 14.2497 42.5717 14.3291C42.5163 14.4086 42.4707 14.4826 42.4707 14.4935C42.4705 14.5048 42.4067 14.6181 42.3283 14.7455C42.2499 14.8731 42.1613 15.018 42.1315 15.0675C42.0669 15.1748 41.55 16.0092 41.4602 16.1511C41.4256 16.2058 41.3864 16.2731 41.3735 16.3005C41.2114 16.6433 39.723 18.78 39.6439 18.7836C39.4802 18.7907 39.3851 17.0028 39.3837 13.8922C39.383 12.5221 39.371 11.394 39.3571 11.3857C39.3384 11.3772 38.6457 11.3599 37.8136 11.3472L36.2951 11.3243L36.2611 11.4127C36.2166 11.5307 36.2156 15.9383 36.2599 17.0127C36.3606 19.4498 36.7702 20.8263 37.65 21.6837C38.9784 22.9784 40.6601 22.5924 42.1962 20.6401C42.3466 20.4489 42.4864 20.273 42.5071 20.249C42.5623 20.1847 43.3387 19.0691 43.5126 18.8041C43.8464 18.2954 45.0506 16.343 45.0864 16.2526C45.0943 16.2328 45.1661 16.1165 45.2459 15.9936C45.306 15.9011 45.358 15.817 45.3801 15.7768L45.4145 15.7044C45.4288 15.6789 45.4487 15.646 45.4705 15.612C45.5142 15.5438 45.683 15.2649 45.8457 14.9918C46.0085 14.7184 46.2676 14.2879 46.4212 14.0349C46.5743 13.7829 46.6997 13.5638 46.7007 13.5465C46.7007 13.5346 46.7091 13.5243 46.7211 13.5199L46.7473 13.515C46.7592 13.5105 46.7677 13.5003 46.7677 13.4884C46.7679 13.4722 46.8912 13.2599 47.0418 13.0163C47.1924 12.7726 47.3512 12.5136 47.3949 12.4407C47.5162 12.2379 48.2423 11.1413 48.4127 10.9034C48.4958 10.7874 48.6128 10.6237 48.6729 10.5397C49.0515 10.0097 49.3452 9.66623 49.3941 9.69613C49.427 9.71624 49.4084 10.1064 49.3524 10.5691C49.3359 10.7058 49.3055 10.9816 49.2849 11.1819C49.2642 11.3824 49.2109 11.8443 49.1662 12.2088C49.0884 12.8442 49.0623 13.0476 48.9842 13.6336C48.9161 14.1449 48.8116 14.9944 48.7825 15.2732C48.7663 15.4281 48.7226 15.8381 48.6851 16.1843C48.6478 16.5304 48.6017 17.03 48.5829 17.2941C48.564 17.5584 48.5331 17.9756 48.5141 18.2215C48.4099 19.574 48.5954 21.2155 48.9371 21.9651C49.2985 22.7581 49.6688 23.1218 50.4324 23.4333C51.3266 23.7982 52.5146 23.4063 53.3974 22.4552C53.7372 22.0892 53.7361 22.0908 54.2467 21.4353C54.3784 21.2662 54.7908 20.6746 54.7908 20.6548C54.7912 20.6429 54.8339 20.572 54.8861 20.4965C55.0101 20.3173 55.1657 20.0779 55.2126 19.9941C55.2329 19.9576 55.3481 19.7637 55.4687 19.5634C55.7031 19.1735 55.9183 18.8045 56.0667 18.5365C56.1172 18.4454 56.236 18.2338 56.3306 18.0665C56.4252 17.8992 56.5028 17.7546 56.5028 17.745C56.5028 17.7355 56.5458 17.656 56.5981 17.5682C56.695 17.4063 57.0071 16.8315 57.2601 16.35C57.3366 16.2041 57.4638 15.9655 57.5427 15.8198C57.6217 15.6741 57.7501 15.4358 57.8283 15.29C58.1717 14.6491 58.3593 14.3001 58.5847 13.8819C58.7172 13.636 58.8834 13.328 58.9537 13.1975C59.0238 13.0671 59.1183 12.8955 59.164 12.8163C59.2095 12.7371 59.3115 12.5533 59.3906 12.4076C59.7254 11.7914 59.772 11.708 59.8242 11.6291C59.8544 11.5835 59.9225 11.4642 59.9756 11.364C60.0286 11.2638 60.1147 11.1194 60.167 11.0433C60.2194 10.9672 60.2622 10.8971 60.2624 10.887C60.2624 10.8616 60.7136 10.124 60.9885 9.69981C61.5411 8.8475 61.6747 8.67239 61.7314 8.72782C61.8228 8.81816 61.8489 12.3527 61.7768 14.9087C61.7565 15.6284 61.7397 17.5239 61.7396 19.1207V22.0244L61.8484 22.0363C61.9084 22.0428 62.6337 22.0432 63.4598 22.0375L64.962 22.0273L64.9685 19.6026C64.9966 8.49176 64.9738 7.89072 64.4837 6.70937ZM54.907 20.6916C54.9075 20.6902 54.9087 20.6882 54.9094 20.6855C54.9102 20.6826 54.9135 20.6707 54.9135 20.6548C54.9135 20.6715 54.909 20.685 54.907 20.6916ZM42.3508 14.4673L42.3479 14.4935C42.3479 14.4786 42.351 14.4663 42.3529 14.4596C42.3523 14.4614 42.3515 14.4641 42.3508 14.4673ZM60.3798 10.9218C60.38 10.9211 60.3804 10.9204 60.3806 10.9197C60.3813 10.9174 60.3851 10.9044 60.3851 10.887C60.3851 10.9027 60.3816 10.9153 60.3798 10.9218ZM57.76 8.68977C57.7591 8.6929 57.7563 8.70479 57.7563 8.72045C57.7563 8.70635 57.7588 8.69369 57.7616 8.68405C57.7611 8.68567 57.7605 8.68762 57.76 8.68977ZM57.9277 8.43655C57.9266 8.44071 57.924 8.45137 57.924 8.46559C57.924 8.45058 57.9272 8.43835 57.9289 8.43205C57.9285 8.43331 57.9281 8.43497 57.9277 8.43655Z" fill="white"/>
</svg>
