<svg width="16" height="16" viewBox="0 0 16 16" fill="none" xmlns="http://www.w3.org/2000/svg">
<g clip-path="url(#clip0_119_243)">
<path d="M7.99995 15.0337C21.5387 7.06556 14.452 -1.78396 7.99995 1.777C1.54793 -1.78393 -5.53874 7.06559 7.99995 15.0337Z" fill="#FF6465"/>
<path d="M7.99992 12.9738C5.67049 11.4868 3.93571 9.88382 2.95193 8.30213C2.14109 6.99848 1.86081 5.76511 2.1414 4.73523C2.4744 3.51292 3.59793 2.72314 5.00377 2.72314C5.70652 2.72314 6.44902 2.92793 7.15102 3.31536L7.99992 3.78389L8.84883 3.31536C9.55083 2.92793 10.2933 2.72314 10.9961 2.72314C12.4016 2.72314 13.5249 3.51292 13.8579 4.73523C14.1385 5.76517 13.8583 6.99864 13.0475 8.30229C12.0639 9.88404 10.3292 11.4869 7.99992 12.9738Z" fill="#E65A5B"/>
<g opacity="0.1">
<path d="M4.5067 8.59626C3.68479 6.93976 3.49088 5.42867 3.94595 4.22624C4.18423 3.59664 4.59745 3.08596 5.12938 2.72543C5.08738 2.72399 5.04548 2.72314 5.00376 2.72314C3.59792 2.72314 2.47439 3.51292 2.14142 4.73523C1.86079 5.76511 2.14111 6.99851 2.95192 8.30213C3.90076 9.82766 5.54841 11.373 7.75419 12.8149C6.289 11.3952 5.18807 9.96954 4.5067 8.59626Z" fill="black"/>
</g>
<path d="M12.0339 0.782584C10.7118 0.531366 9.32086 0.765272 8.00189 1.45893C6.62243 0.73499 5.12096 0.510491 3.75778 0.827365C2.39819 1.14333 1.28644 1.95399 0.627408 3.10999C0.110253 4.0172 -0.555089 5.94017 0.799939 8.62601C1.36013 9.73641 2.20659 10.8426 3.31581 11.914C4.52624 13.0831 6.05496 14.2144 7.85952 15.2765C7.90349 15.3023 7.95268 15.3153 8.00193 15.3153C8.05118 15.3153 8.10039 15.3024 8.14433 15.2765C9.21261 14.6478 10.1937 13.9882 11.0603 13.3162C11.1828 13.2212 11.2051 13.0448 11.1101 12.9222C11.0151 12.7997 10.8386 12.7774 10.7162 12.8724C9.90695 13.4999 8.99455 14.117 8.00196 14.7082C4.72349 12.7555 2.40822 10.5671 1.30131 8.37304C0.384628 6.55601 0.318565 4.78567 1.11528 3.38811C1.69591 2.36967 2.6795 1.65449 3.88493 1.37433C5.15765 1.07855 6.57162 1.30908 7.8663 2.02364C7.95077 2.07027 8.05321 2.07027 8.13768 2.02364C9.3808 1.33755 10.692 1.09924 11.9291 1.33427C13.0795 1.55283 14.0609 2.17214 14.6926 3.07808C15.4354 4.14339 15.631 5.52748 15.2434 6.97535C14.7832 8.69488 13.5151 10.4907 11.5765 12.1687C11.4593 12.2702 11.4464 12.4475 11.5479 12.5647C11.6494 12.682 11.8268 12.6948 11.944 12.5933C13.968 10.8415 15.2965 8.94907 15.7859 7.12054C16.2171 5.51001 15.9924 3.96033 15.1533 2.75689C14.4372 1.72983 13.3294 1.02871 12.0339 0.782584Z" fill="black"/>
<path d="M2.93439 3.85455C3.03833 3.73946 3.0293 3.56189 2.91424 3.45796C2.79927 3.35405 2.62168 3.36302 2.51764 3.47814C2.21118 3.81743 1.99415 4.2158 1.87255 4.66217C1.57086 5.76926 1.8624 7.07951 2.71558 8.4512C3.7157 10.0592 5.49148 11.7052 7.85091 13.2112C7.89698 13.2407 7.94951 13.2553 8.00198 13.2553C8.05448 13.2553 8.10701 13.2406 8.15304 13.2112C10.5124 11.7051 12.2881 10.0592 13.288 8.45135C14.1411 7.07964 14.4325 5.76936 14.1309 4.66217C13.7636 3.31414 12.5339 2.44312 10.9982 2.44312C10.248 2.44312 9.45857 2.65996 8.71516 3.07027L8.00195 3.46393L7.28873 3.07027C6.54535 2.65996 5.75595 2.44312 5.0058 2.44312C4.47314 2.44312 3.97355 2.54702 3.52077 2.75199C3.37952 2.81593 3.3168 2.98233 3.38074 3.12358C3.44477 3.26483 3.61102 3.32755 3.75236 3.26361C4.13186 3.09183 4.55355 3.00471 5.0058 3.00471C5.66126 3.00471 6.35682 3.19743 7.01735 3.56196L7.86626 4.03049C7.95073 4.07711 8.05316 4.07711 8.13763 4.03049L8.98654 3.56196C9.6471 3.1974 10.3427 3.00471 10.9982 3.00471C12.2733 3.00471 13.2903 3.71327 13.589 4.8098C13.8486 5.76239 13.5796 6.91904 12.8111 8.15473C11.8763 9.65782 10.2156 11.2065 8.00198 12.6407C5.78826 11.2065 4.12742 9.65779 3.19242 8.15457C2.42389 6.91895 2.15486 5.76233 2.41443 4.80977C2.51264 4.44921 2.68761 4.1278 2.93439 3.85455Z" fill="black"/>
</g>
<defs>
<clipPath id="clip0_119_243">
<rect width="16" height="16" fill="white"/>
</clipPath>
</defs>
</svg>
