<svg width="16" height="16" viewBox="0 0 16 16" fill="none" xmlns="http://www.w3.org/2000/svg">
<g clip-path="url(#clip0_119_252)">
<path d="M11.8085 0.264404C13.6823 0.264404 14.7564 2.93809 14.7564 4.72058C14.7564 6.50308 14.1165 10.7078 14.1165 12.3304C14.1165 13.9529 13.888 15.7354 11.8542 15.7354C9.82033 15.7354 9.66036 13.8387 9.66036 13.0388C9.66036 12.239 9.72892 9.19964 9.22618 6.73161C8.72343 4.26352 8.38065 0.264404 11.8085 0.264404Z" fill="#F9DCA4"/>
<path d="M14.6534 6.47082C14.5625 7.47726 14.4278 8.64476 14.3161 9.71041L11.7498 8.02435L10.5809 7.25623L9.22899 6.36789L9.1458 6.3136C8.94559 5.2092 8.80915 3.88727 9.00693 2.76099L10.6052 3.81077L11.5323 4.41992L14.0531 6.07639L14.6534 6.47082Z" fill="#F4C063"/>
<path d="M11.7498 8.02447L10.7719 8.85147L9.59944 9.84309C9.54128 8.83772 9.43128 7.73753 9.22613 6.73181C9.19897 6.59681 9.17185 6.45685 9.14575 6.31372L9.22894 6.368L10.5808 7.25634L11.7498 8.02447Z" fill="#F4C063"/>
<path d="M14.7564 4.72058C14.7564 5.17443 14.7149 5.78527 14.6532 6.47083L14.053 6.0763L11.5322 4.41996L14.1719 2.18774C14.5542 3.00562 14.7564 3.9469 14.7564 4.72058Z" fill="#F4C063"/>
<path d="M10.7719 8.85135L9.59943 9.84297C9.54127 8.8376 9.43127 7.73741 9.22612 6.7317C9.19896 6.5967 9.17184 6.45673 9.14574 6.3136C8.94553 5.2092 8.80909 3.88727 9.00687 2.76099L10.6051 3.81077C10.5392 4.57042 10.4744 5.83136 10.5808 7.25623C10.6193 7.77195 10.6803 8.30882 10.7719 8.85135Z" fill="#D5A03C"/>
<path d="M15.0204 4.49018C14.2264 3.98736 12.7564 5.6463 12.7564 5.6463H10.9977C10.9977 5.6463 9.52764 3.98733 8.73367 4.49018C7.93971 4.99302 8.73367 6.23686 8.73367 6.23686C8.73367 6.23686 7.93971 7.48073 8.73367 7.98354C9.52764 8.48636 10.9977 6.82742 10.9977 6.82742H12.7564C12.7564 6.82742 14.2264 8.48639 15.0204 7.98354C15.8143 7.4807 15.0204 6.23686 15.0204 6.23686C15.0204 6.23686 15.8143 4.99299 15.0204 4.49018Z" fill="#EC589B"/>
<path d="M4.19149 0.264404C2.31762 0.264404 1.24353 2.93809 1.24353 4.72058C1.24353 6.50308 1.88344 10.7078 1.88344 12.3304C1.88344 13.9529 2.11197 15.7354 4.14581 15.7354C6.17965 15.7354 6.33961 13.8387 6.33961 13.0388C6.33961 12.239 6.27105 9.19964 6.7738 6.73161C7.27655 4.26358 7.61933 0.264404 4.19149 0.264404Z" fill="#F9DCA4"/>
<path d="M6.85407 6.31388L6.77089 6.36816L4.25008 8.02463L3.12274 8.76525L1.68414 9.71069C1.5724 8.64503 1.4374 7.47753 1.3468 6.4711L1.94677 6.07663L2.82486 5.49957L4.46792 4.42016L6.99295 2.76123C7.19073 3.88757 7.05429 5.20948 6.85407 6.31388Z" fill="#F4C063"/>
<path d="M4.25006 8.02453L6.40034 9.84334C6.45862 8.83793 6.56862 7.73762 6.77362 6.73191C6.80106 6.59684 6.82812 6.45697 6.85418 6.31372L6.77087 6.36822L4.25006 8.02453Z" fill="#F4C063"/>
<path d="M4.46793 4.42008L2.82487 5.49948L1.94678 6.07654L1.34681 6.47101C1.28512 5.78539 1.24353 5.17448 1.24353 4.7208C1.24353 3.94705 1.44587 3.00583 1.828 2.18799L3.1129 3.27408L4.46793 4.42008Z" fill="#F4C063"/>
<path d="M3.12275 8.76492L1.68415 9.71035C1.5724 8.6447 1.4374 7.4772 1.34681 6.47077C1.28512 5.78514 1.24353 5.17424 1.24353 4.72055C1.24353 3.9468 1.44587 3.00559 1.828 2.18774L3.1129 3.27384C2.97084 3.84421 2.84921 4.58624 2.8249 5.49924C2.80021 6.41614 2.87353 7.5047 3.12275 8.76492Z" fill="#D5A03C"/>
<path d="M0.979583 4.49018C1.77355 3.98736 3.24358 5.6463 3.24358 5.6463H5.00229C5.00229 5.6463 6.47232 3.98733 7.26629 4.49018C8.06026 4.99302 7.26629 6.23686 7.26629 6.23686C7.26629 6.23686 8.06026 7.48073 7.26629 7.98354C6.47232 8.48636 5.00229 6.82742 5.00229 6.82742H3.24358C3.24358 6.82742 1.77355 8.48639 0.979583 7.98354C0.185616 7.4807 0.979583 6.23686 0.979583 6.23686C0.979583 6.23686 0.185647 4.99299 0.979583 4.49018Z" fill="#EC589B"/>
<path d="M15.6094 4.89868C15.5503 4.63327 15.3955 4.41471 15.1618 4.26674C15.1077 4.23249 15.051 4.20512 14.992 4.18371C14.9205 3.47143 14.7173 2.73034 14.4115 2.07584C13.786 0.737217 12.8617 0 11.8085 0C10.1168 0 9.05801 0.938904 8.74654 2.71509C8.66757 3.16387 8.63548 3.67421 8.65007 4.23349C8.6306 4.24384 8.61129 4.25468 8.59226 4.26674C8.35854 4.41477 8.20376 4.63327 8.1447 4.89868C8.03117 5.40855 8.28567 5.9738 8.42801 6.23677C8.28567 6.49974 8.03117 7.06499 8.1447 7.57486C8.20379 7.84027 8.35854 8.05883 8.59226 8.2068C8.74132 8.30123 8.90316 8.34148 9.07079 8.34148C9.11566 8.34148 9.16107 8.33783 9.20663 8.33233C9.26095 8.80842 9.30435 9.31998 9.33563 9.85845C9.34548 10.0274 9.35429 10.2017 9.36179 10.3765C9.36791 10.5185 9.48495 10.6295 9.62573 10.6295C9.62957 10.6295 9.63345 10.6295 9.63729 10.6293C9.7832 10.623 9.89635 10.4997 9.89007 10.3538C9.88435 10.2215 9.87794 10.0895 9.87091 9.95982L10.1831 9.69576C10.2647 11.0171 10.2578 12.184 10.2542 12.7799L10.2538 12.8261C10.2533 12.9085 10.2528 12.9798 10.2528 13.0388C10.2528 13.7434 10.399 14.177 10.5218 14.4167C10.8551 15.0677 11.4418 15.143 11.854 15.143C12.2231 15.143 12.525 15.071 12.7513 14.9291C12.9448 14.8078 13.0961 14.6299 13.214 14.3848C13.4886 13.8124 13.5238 12.9862 13.5238 12.3304C13.5238 12.043 13.5422 11.6698 13.5801 11.1894C13.5915 11.0438 13.4828 10.9165 13.3373 10.905C13.1916 10.8934 13.0644 11.0023 13.0529 11.1478C13.014 11.6422 12.995 12.0291 12.995 12.3304C12.995 12.9303 12.9658 13.6799 12.7373 14.1559C12.6642 14.3081 12.5768 14.4145 12.4705 14.4812C12.3296 14.5695 12.1222 14.6143 11.854 14.6143C11.2941 14.6143 11.1091 14.4035 10.9925 14.1758C10.8963 13.9878 10.7816 13.6381 10.7816 13.0389C10.7816 12.9809 10.7821 12.9109 10.7827 12.8299L10.783 12.7834C10.7869 12.123 10.7951 10.7696 10.6844 9.27183L11.7698 8.35373L13.23 9.31326C13.194 9.65086 13.1518 10.055 13.1157 10.4353C13.1018 10.5806 13.2084 10.7097 13.3538 10.7235C13.3623 10.7244 13.3708 10.7247 13.3792 10.7247C13.5138 10.7247 13.629 10.6222 13.642 10.4854C13.6687 10.2047 13.6988 9.91054 13.7272 9.63992L14.0363 9.84307C13.9388 10.7861 13.8524 11.7235 13.8524 12.3304C13.8524 13.021 13.8135 13.8949 13.5099 14.527C13.2006 15.1712 12.6746 15.4712 11.8544 15.4712C11.0733 15.4712 10.5419 15.1753 10.23 14.5665C10.0276 14.1714 9.92498 13.6575 9.92498 13.0388C9.92498 12.9688 9.92551 12.8815 9.9261 12.7788C9.92832 12.4094 9.93169 11.8513 9.91685 11.1809C9.91366 11.0369 9.79595 10.9223 9.65263 10.9223C9.65066 10.9223 9.6487 10.9223 9.64666 10.9224C9.5007 10.9256 9.38495 11.0466 9.3882 11.1925C9.40285 11.8556 9.39951 12.4092 9.39732 12.7755C9.39666 12.8795 9.39616 12.9679 9.39616 13.0388C9.39616 13.7421 9.51838 14.3372 9.75938 14.8076C10.159 15.5877 10.8835 16 11.8544 16C12.8728 16 13.5902 15.5814 13.9866 14.7559C14.3363 14.0276 14.3811 13.0771 14.3811 12.3304C14.3811 11.7117 14.4811 10.6727 14.5788 9.73804C14.6111 9.43051 14.6452 9.11451 14.6797 8.79639C14.6961 8.64451 14.7125 8.49226 14.7289 8.34014C14.8801 8.33333 15.0263 8.29261 15.1617 8.20683C15.3955 8.0588 15.5502 7.8403 15.6093 7.57489C15.7228 7.06502 15.4683 6.49977 15.326 6.2368C15.4684 5.97377 15.7229 5.40855 15.6094 4.89868ZM11.8085 0.52878C12.273 0.52878 13.1385 0.741311 13.8437 2.11912L13.585 2.3379C13.1209 1.39193 12.485 0.856998 11.8085 0.856998C11.4046 0.856998 11.0502 0.923623 10.7554 1.05503C10.622 1.1145 10.5621 1.27078 10.6215 1.40415C10.681 1.53756 10.8373 1.5974 10.9706 1.538C11.1973 1.43697 11.4792 1.38575 11.8085 1.38575C12.293 1.38575 12.7934 1.86996 13.1672 2.69112L11.5123 4.09062L10.0815 3.15053C10.1359 2.73462 10.2346 2.3889 10.3759 2.12156C10.4441 1.99246 10.3948 1.8325 10.2657 1.76428C10.1366 1.69606 9.97663 1.7454 9.90838 1.8745C9.76835 2.13946 9.66394 2.4604 9.59623 2.83174L9.30029 2.63731C9.59976 1.21918 10.4215 0.52878 11.8085 0.52878ZM14.0988 9.25145L10.9973 7.2133C11.043 7.16699 11.0823 7.12592 11.1143 7.0917H12.6399C12.8806 7.34924 13.5383 8.00408 14.207 8.24783C14.1894 8.4118 14.1718 8.57583 14.1541 8.73948C14.1355 8.91117 14.117 9.08204 14.0988 9.25145ZM11.2621 6.56296V5.91061H12.492V6.56296H11.2621ZM11.1143 5.38183C10.8284 5.07615 9.95701 4.21209 9.17682 4.13734C9.17104 3.80777 9.18288 3.49852 9.21213 3.21206L12.5146 5.38183H11.1143ZM8.87513 7.76011C8.79363 7.70852 8.54563 7.55145 8.68898 6.99892C8.74082 6.79899 8.82692 6.6158 8.88745 6.50114H9.62507C9.7711 6.50114 9.88945 6.38277 9.88945 6.23677C9.88945 6.09077 9.7711 5.97239 9.62507 5.97239H8.88748C8.82692 5.85764 8.74085 5.67452 8.68901 5.47461C8.54573 4.92212 8.7937 4.76508 8.87517 4.71343C9.30854 4.43915 10.2699 5.2508 10.7333 5.74864V6.72502C10.2702 7.22324 9.30954 8.0352 8.87513 7.76011ZM9.82857 9.30314C9.79913 8.90979 9.76313 8.53255 9.72088 8.17561C10.0394 8.02723 10.3469 7.80073 10.5994 7.58455L11.3091 8.05089L9.82857 9.30314ZM14.8789 7.76011C14.4457 8.03442 13.4843 7.2228 13.0208 6.72489V5.74968C13.1289 5.63518 13.3595 5.40115 13.6376 5.17802C13.7515 5.08665 13.7698 4.92024 13.6784 4.80637C13.587 4.69249 13.4206 4.67421 13.3067 4.76562C13.1857 4.86274 13.074 4.96077 12.9753 5.05187L11.9731 4.3934L14.0697 2.62053C14.2616 3.10834 14.3971 3.64284 14.457 4.15237C14.3098 4.18043 14.1533 4.23502 13.9876 4.31721C13.8567 4.38209 13.8033 4.54071 13.8681 4.67152C13.933 4.80233 14.0917 4.8558 14.2225 4.79096C14.5123 4.64727 14.7331 4.62121 14.8789 4.71355C14.9604 4.76515 15.2084 4.92221 15.065 5.47471C15.0132 5.67464 14.9271 5.85786 14.8666 5.97249H14.129C13.983 5.97249 13.8646 6.09086 13.8646 6.23686C13.8646 6.38286 13.983 6.50124 14.129 6.50124H14.8666C14.9272 6.61599 15.0132 6.79911 15.0651 6.99902C15.2084 7.55142 14.9604 7.70852 14.8789 7.76011Z" fill="black"/>
<path d="M7.85527 4.89868C7.79618 4.63327 7.64143 4.41471 7.40771 4.26674C7.38865 4.25468 7.36934 4.2438 7.34987 4.23346C7.36449 3.67427 7.33243 3.16396 7.25346 2.71518C6.94193 0.938904 5.88315 0 4.19147 0C3.13831 0 2.21388 0.737217 1.58844 2.07584C1.2826 2.73031 1.07941 3.47143 1.00791 4.18371C0.948942 4.20512 0.892192 4.23246 0.838098 4.26674C0.60438 4.41477 0.44963 4.63327 0.390537 4.89868C0.277037 5.40855 0.531505 5.9738 0.673849 6.23677C0.531505 6.49974 0.277037 7.06499 0.390537 7.57486C0.44963 7.84027 0.60438 8.05883 0.838098 8.20683C0.973598 8.29264 1.11966 8.33336 1.27097 8.34011C1.28747 8.49355 1.30404 8.64711 1.3206 8.80026C1.35485 9.11711 1.38891 9.43179 1.42103 9.73795C1.51878 10.6727 1.61875 11.7117 1.61875 12.3304C1.61875 13.0771 1.6636 14.0276 2.01335 14.7559C2.40972 15.5814 3.12706 16 4.1455 16C5.11643 16 5.84087 15.5877 6.24046 14.8077C6.48146 14.3373 6.60368 13.7422 6.60368 13.0389C6.60368 12.968 6.60315 12.8797 6.60252 12.7758C6.60031 12.4095 6.59696 11.8558 6.61165 11.1927C6.6149 11.0467 6.49915 10.9257 6.35318 10.9225C6.20646 10.9189 6.08621 11.035 6.08299 11.1809C6.06812 11.8516 6.07149 12.4097 6.07371 12.7791C6.07434 12.8817 6.07487 12.969 6.07487 13.039C6.07487 13.6576 5.97221 14.1716 5.76984 14.5667C5.45796 15.1754 4.92662 15.4713 4.14544 15.4713C3.32528 15.4713 2.79922 15.1713 2.48994 14.5272C2.18638 13.895 2.14744 13.0211 2.14744 12.3305C2.14744 11.7236 2.06106 10.7864 1.9635 9.84323L2.27266 9.64007C2.30103 9.9107 2.3311 10.2049 2.35781 10.4855C2.37085 10.6224 2.486 10.7249 2.62072 10.7249C2.6291 10.7249 2.6376 10.7245 2.6461 10.7237C2.79147 10.7099 2.89806 10.5808 2.88422 10.4354C2.84797 10.0552 2.80578 9.65101 2.76984 9.31342L4.23003 8.35389L5.31543 9.27198C5.20478 10.7701 5.21293 12.1234 5.2169 12.7838L5.21721 12.8301C5.21778 12.9111 5.21828 12.9812 5.21828 13.0391C5.21828 13.6383 5.10359 13.9881 5.0074 14.176C4.89078 14.4037 4.70568 14.6145 4.14584 14.6145C3.87769 14.6145 3.67028 14.5697 3.52944 14.4814C3.423 14.4147 3.33569 14.3083 3.26266 14.1564C3.03416 13.6801 3.00484 12.9305 3.00484 12.3306C3.00484 12.029 2.98591 11.6422 2.94697 11.148C2.93547 11.0024 2.80775 10.8936 2.66263 10.9053C2.51706 10.9167 2.40835 11.044 2.41985 11.1896C2.45772 11.6698 2.4761 12.043 2.4761 12.3306C2.4761 12.9864 2.51131 13.8127 2.78606 14.3853C2.90381 14.6301 3.05506 14.808 3.24863 14.9294C3.47497 15.0713 3.77687 15.1432 4.1459 15.1432C4.55815 15.1432 5.14481 15.0679 5.47815 14.4169C5.60087 14.1773 5.74715 13.7436 5.74715 13.0391C5.74715 12.9801 5.74665 12.9088 5.74609 12.8264L5.74578 12.7804C5.74218 12.1844 5.73521 11.0176 5.81684 9.69595L6.12906 9.96004C6.12206 10.0897 6.11559 10.2217 6.10987 10.354C6.10359 10.4999 6.21674 10.6232 6.36262 10.6295C6.36649 10.6297 6.37037 10.6298 6.37421 10.6298C6.51499 10.6298 6.63202 10.5188 6.63818 10.3768C6.64571 10.2019 6.65452 10.0275 6.66434 9.85861C6.69556 9.32033 6.73896 8.80876 6.79331 8.33251C6.8389 8.33801 6.88427 8.34167 6.92915 8.34167C7.09671 8.34167 7.25868 8.30136 7.40768 8.20698C7.6414 8.05895 7.79615 7.84045 7.85524 7.57505C7.96874 7.06517 7.71427 6.49992 7.57193 6.23696C7.7143 5.97377 7.96877 5.40855 7.85527 4.89868ZM1.9011 9.25145C1.88303 9.08333 1.86472 8.91373 1.84628 8.74342C1.82844 8.57848 1.81072 8.41311 1.79297 8.24786C2.46166 8.00411 3.11934 7.34927 3.36009 7.09174H4.88568C4.91765 7.12592 4.9569 7.16699 5.00262 7.21333L1.9011 9.25145ZM3.50794 6.56296V5.91061H4.73784V6.56296H3.50794ZM4.88562 5.38183H3.48528L6.78781 3.21206C6.81706 3.49849 6.8289 3.80777 6.82309 4.1373C6.0429 4.21205 5.1715 5.07608 4.88562 5.38183ZM4.19147 0.52878C5.5784 0.52878 6.40015 1.21918 6.69962 2.63734L6.40365 2.83178C6.33596 2.4605 6.23156 2.13959 6.09149 1.87453C6.02324 1.74543 5.86328 1.69606 5.73421 1.76431C5.60512 1.83256 5.55575 1.9925 5.624 2.12159C5.76531 2.38896 5.86406 2.73471 5.91846 3.15056L4.48768 4.09059L2.83272 2.69112C3.20653 1.86993 3.70694 1.38575 4.19147 1.38575C4.52072 1.38575 4.80259 1.43697 5.02928 1.538C5.16275 1.59743 5.31896 1.5375 5.3784 1.40415C5.43784 1.27075 5.3779 1.1145 5.24456 1.05503C4.94968 0.923623 4.59537 0.856998 4.19147 0.856998C3.51494 0.856998 2.87903 1.39193 2.41497 2.3379L2.15625 2.11912C2.86147 0.741311 3.72691 0.52878 4.19147 0.52878ZM0.934817 6.99895C0.986661 6.79902 1.07275 6.61583 1.13329 6.50117H1.87091C2.01691 6.50117 2.13528 6.3828 2.13528 6.2368C2.13528 6.0908 2.01691 5.97243 1.87091 5.97243H1.13207C1.0081 5.73874 0.837755 5.32321 0.906661 5.01362C0.935723 4.88305 1.00382 4.78765 1.12104 4.71346C1.26679 4.62115 1.48766 4.64718 1.77747 4.7909C1.90825 4.85577 2.06691 4.8023 2.13178 4.67146C2.19666 4.54065 2.14319 4.38202 2.01235 4.31715C1.84666 4.23499 1.69016 4.1804 1.54297 4.15234C1.60282 3.64281 1.73838 3.10828 1.93028 2.62046L4.02684 4.39334L3.02459 5.05183C2.92594 4.96074 2.81428 4.86271 2.69322 4.76558C2.57928 4.67418 2.41291 4.69243 2.32156 4.80633C2.23019 4.92021 2.24841 5.08661 2.36231 5.17799C2.64041 5.40118 2.87103 5.63521 2.97919 5.74964V6.72499C2.51613 7.2232 1.55553 8.03514 1.12104 7.76008C1.03954 7.70852 0.791536 7.55142 0.934817 6.99895ZM6.17131 9.30314L4.69087 8.05092L5.40053 7.58458C5.65296 7.80077 5.96059 8.02727 6.27906 8.17564C6.23674 8.53264 6.20074 8.90986 6.17131 9.30314ZM7.33912 7.45995C7.31005 7.59052 7.24196 7.68592 7.1248 7.76011C6.69146 8.03452 5.73021 7.22286 5.26665 6.72492V5.74868C5.73025 5.25071 6.69149 4.43902 7.1248 4.71346C7.2063 4.76505 7.45427 4.92212 7.31096 5.47461C7.25912 5.67455 7.17302 5.85777 7.11249 5.97239H6.37487C6.22887 5.97239 6.11049 6.09077 6.11049 6.23677C6.11049 6.38277 6.22887 6.50114 6.37487 6.50114H7.11374C7.23771 6.73483 7.40802 7.15039 7.33912 7.45995Z" fill="black"/>
</g>
<defs>
<clipPath id="clip0_119_252">
<rect width="16" height="16" fill="white"/>
</clipPath>
</defs>
</svg>
