<svg width="16" height="16" viewBox="0 0 16 16" fill="none" xmlns="http://www.w3.org/2000/svg">
<path d="M5.80659 5.14001L7.33325 3.60668V10C7.33325 10.1768 7.40349 10.3464 7.52851 10.4714C7.65354 10.5964 7.82311 10.6667 7.99992 10.6667C8.17673 10.6667 8.3463 10.5964 8.47132 10.4714C8.59635 10.3464 8.66658 10.1768 8.66658 10V3.60668L10.1933 5.14001C10.2552 5.2025 10.329 5.25209 10.4102 5.28594C10.4914 5.31979 10.5786 5.33721 10.6666 5.33721C10.7546 5.33721 10.8417 5.31979 10.923 5.28594C11.0042 5.25209 11.0779 5.2025 11.1399 5.14001C11.2024 5.07804 11.252 5.0043 11.2858 4.92306C11.3197 4.84182 11.3371 4.75469 11.3371 4.66668C11.3371 4.57867 11.3197 4.49153 11.2858 4.41029C11.252 4.32906 11.2024 4.25532 11.1399 4.19335L8.47325 1.52668C8.40985 1.46599 8.33509 1.41841 8.25325 1.38668C8.09094 1.32 7.90889 1.32 7.74658 1.38668C7.66475 1.41841 7.58999 1.46599 7.52658 1.52668L4.85992 4.19335C4.79776 4.2555 4.74845 4.3293 4.71481 4.41051C4.68117 4.49173 4.66386 4.57877 4.66386 4.66668C4.66386 4.75459 4.68117 4.84163 4.71481 4.92285C4.74845 5.00406 4.79776 5.07785 4.85992 5.14001C4.92208 5.20217 4.99587 5.25148 5.07709 5.28512C5.1583 5.31876 5.24535 5.33607 5.33325 5.33607C5.42116 5.33607 5.5082 5.31876 5.58942 5.28512C5.67063 5.25148 5.74443 5.20217 5.80659 5.14001ZM13.9999 9.33335C13.8231 9.33335 13.6535 9.40358 13.5285 9.52861C13.4035 9.65363 13.3333 9.8232 13.3333 10V12.6667C13.3333 12.8435 13.263 13.0131 13.138 13.1381C13.013 13.2631 12.8434 13.3333 12.6666 13.3333H3.33325C3.15644 13.3333 2.98687 13.2631 2.86185 13.1381C2.73682 13.0131 2.66659 12.8435 2.66659 12.6667V10C2.66659 9.8232 2.59635 9.65363 2.47132 9.52861C2.3463 9.40358 2.17673 9.33335 1.99992 9.33335C1.82311 9.33335 1.65354 9.40358 1.52851 9.52861C1.40349 9.65363 1.33325 9.8232 1.33325 10V12.6667C1.33325 13.1971 1.54397 13.7058 1.91904 14.0809C2.29411 14.456 2.80282 14.6667 3.33325 14.6667H12.6666C13.197 14.6667 13.7057 14.456 14.0808 14.0809C14.4559 13.7058 14.6666 13.1971 14.6666 12.6667V10C14.6666 9.8232 14.5963 9.65363 14.4713 9.52861C14.3463 9.40358 14.1767 9.33335 13.9999 9.33335Z" fill="white"/>
</svg>
